solid Visualization Toolkit generated SLA File
 facet normal 1 0 0
  outer loop
   vertex -0.82300001382827759 1 -0.39300000667572021
   vertex -0.82300001382827759 1 -0.10100000351667404
   vertex -0.82300001382827759 0 -0.39300000667572021
  endloop
 endfacet
 facet normal 1 0 0
  outer loop
   vertex -0.82300001382827759 0 -0.39300000667572021
   vertex -0.82300001382827759 1 -0.10100000351667404
   vertex -0.82300001382827759 0 -0.10100000351667404
  endloop
 endfacet
 facet normal -0 0 1
  outer loop
   vertex -0.47900000214576721 1 -0.39300000667572021
   vertex -0.82300001382827759 1 -0.39300000667572021
   vertex -0.47900000214576721 0 -0.39300000667572021
  endloop
 endfacet
 facet normal 0 0 1
  outer loop
   vertex -0.47900000214576721 0 -0.39300000667572021
   vertex -0.82300001382827759 1 -0.39300000667572021
   vertex -0.82300001382827759 0 -0.39300000667572021
  endloop
 endfacet
 facet normal 1 0 0
  outer loop
   vertex -0.47900000214576721 1 -0.64600002765655518
   vertex -0.47900000214576721 1 -0.39300000667572021
   vertex -0.47900000214576721 0 -0.64600002765655518
  endloop
 endfacet
 facet normal 1 0 0
  outer loop
   vertex -0.47900000214576721 0 -0.64600002765655518
   vertex -0.47900000214576721 1 -0.39300000667572021
   vertex -0.47900000214576721 0 -0.39300000667572021
  endloop
 endfacet
 facet normal -0 0 -1
  outer loop
   vertex -0.89200001955032349 1 -0.64600002765655518
   vertex -0.47900000214576721 1 -0.64600002765655518
   vertex -0.89200001955032349 0 -0.64600002765655518
  endloop
 endfacet
 facet normal 0 -0 -1
  outer loop
   vertex -0.89200001955032349 0 -0.64600002765655518
   vertex -0.47900000214576721 1 -0.64600002765655518
   vertex -0.47900000214576721 0 -0.64600002765655518
  endloop
 endfacet
 facet normal 1 0 0
  outer loop
   vertex -0.89200001955032349 1 -0.80000001192092896
   vertex -0.89200001955032349 1 -0.64600002765655518
   vertex -0.89200001955032349 0 -0.80000001192092896
  endloop
 endfacet
 facet normal 1 0 0
  outer loop
   vertex -0.89200001955032349 0 -0.80000001192092896
   vertex -0.89200001955032349 1 -0.64600002765655518
   vertex -0.89200001955032349 0 -0.64600002765655518
  endloop
 endfacet
 facet normal -0 0 1
  outer loop
   vertex -0.59299999475479126 1 -0.80000001192092896
   vertex -0.89200001955032349 1 -0.80000001192092896
   vertex -0.59299999475479126 0 -0.80000001192092896
  endloop
 endfacet
 facet normal 0 0 1
  outer loop
   vertex -0.59299999475479126 0 -0.80000001192092896
   vertex -0.89200001955032349 1 -0.80000001192092896
   vertex -0.89200001955032349 0 -0.80000001192092896
  endloop
 endfacet
 facet normal 1 0 0
  outer loop
   vertex -0.59299999475479126 1 -0.89999997615814209
   vertex -0.59299999475479126 1 -0.80000001192092896
   vertex -0.59299999475479126 0 -0.89999997615814209
  endloop
 endfacet
 facet normal 1 0 0
  outer loop
   vertex -0.59299999475479126 0 -0.89999997615814209
   vertex -0.59299999475479126 1 -0.80000001192092896
   vertex -0.59299999475479126 0 -0.80000001192092896
  endloop
 endfacet
 facet normal -0 0 1
  outer loop
   vertex 0 1 -0.89999997615814209
   vertex -0.59299999475479126 1 -0.89999997615814209
   vertex 0 0 -0.89999997615814209
  endloop
 endfacet
 facet normal 0 0 1
  outer loop
   vertex 0 0 -0.89999997615814209
   vertex -0.59299999475479126 1 -0.89999997615814209
   vertex -0.59299999475479126 0 -0.89999997615814209
  endloop
 endfacet
 facet normal -1 0 6.5771791131196872e-16
  outer loop
   vertex 1.1115430725338932e-16 1 -0.73100000619888306
   vertex 0 1 -0.89999997615814209
   vertex 1.1115430725338932e-16 0 -0.73100000619888306
  endloop
 endfacet
 facet normal -1 0 6.5771791131196872e-16
  outer loop
   vertex 1.1115430725338932e-16 0 -0.73100000619888306
   vertex 0 1 -0.89999997615814209
   vertex 0 0 -0.89999997615814209
  endloop
 endfacet
 facet normal -0 0 -1
  outer loop
   vertex -0.26499998569488525 1 -0.73100000619888306
   vertex 1.1115430725338932e-16 1 -0.73100000619888306
   vertex -0.26499998569488525 0 -0.73100000619888306
  endloop
 endfacet
 facet normal 0 -0 -1
  outer loop
   vertex -0.26499998569488525 0 -0.73100000619888306
   vertex 1.1115430725338932e-16 1 -0.73100000619888306
   vertex 1.1115430725338932e-16 0 -0.73100000619888306
  endloop
 endfacet
 facet normal -1 0 0
  outer loop
   vertex -0.26499998569488525 1 -0.47099998593330383
   vertex -0.26499998569488525 1 -0.73100000619888306
   vertex -0.26499998569488525 0 -0.47099998593330383
  endloop
 endfacet
 facet normal -1 0 0
  outer loop
   vertex -0.26499998569488525 0 -0.47099998593330383
   vertex -0.26499998569488525 1 -0.73100000619888306
   vertex -0.26499998569488525 0 -0.73100000619888306
  endloop
 endfacet
 facet normal -0 0 1
  outer loop
   vertex 0.35899999737739563 1 -0.47099998593330383
   vertex -0.26499998569488525 1 -0.47099998593330383
   vertex 0.35899999737739563 0 -0.47099998593330383
  endloop
 endfacet
 facet normal 0 0 1
  outer loop
   vertex 0.35899999737739563 0 -0.47099998593330383
   vertex -0.26499998569488525 1 -0.47099998593330383
   vertex -0.26499998569488525 0 -0.47099998593330383
  endloop
 endfacet
 facet normal -1 0 0
  outer loop
   vertex 0.35899999737739563 1 -0.23399999737739563
   vertex 0.35899999737739563 1 -0.47099998593330383
   vertex 0.35899999737739563 0 -0.23399999737739563
  endloop
 endfacet
 facet normal -1 0 0
  outer loop
   vertex 0.35899999737739563 0 -0.23399999737739563
   vertex 0.35899999737739563 1 -0.47099998593330383
   vertex 0.35899999737739563 0 -0.47099998593330383
  endloop
 endfacet
 facet normal -0 0 -1
  outer loop
   vertex 0.072999998927116394 1 -0.23399999737739563
   vertex 0.35899999737739563 1 -0.23399999737739563
   vertex 0.072999998927116394 0 -0.23399999737739563
  endloop
 endfacet
 facet normal 0 -0 -1
  outer loop
   vertex 0.072999998927116394 0 -0.23399999737739563
   vertex 0.35899999737739563 1 -0.23399999737739563
   vertex 0.35899999737739563 0 -0.23399999737739563
  endloop
 endfacet
 facet normal -1 0 0
  outer loop
   vertex 0.072999998927116394 1 0.11699999868869781
   vertex 0.072999998927116394 1 -0.23399999737739563
   vertex 0.072999998927116394 0 0.11699999868869781
  endloop
 endfacet
 facet normal -1 0 0
  outer loop
   vertex 0.072999998927116394 0 0.11699999868869781
   vertex 0.072999998927116394 1 -0.23399999737739563
   vertex 0.072999998927116394 0 -0.23399999737739563
  endloop
 endfacet
 facet normal -0 0 1
  outer loop
   vertex 0.57999998331069946 1 0.11699999868869781
   vertex 0.072999998927116394 1 0.11699999868869781
   vertex 0.57999998331069946 0 0.11699999868869781
  endloop
 endfacet
 facet normal 0 0 1
  outer loop
   vertex 0.57999998331069946 0 0.11699999868869781
   vertex 0.072999998927116394 1 0.11699999868869781
   vertex 0.072999998927116394 0 0.11699999868869781
  endloop
 endfacet
 facet normal 1 0 0
  outer loop
   vertex 0.57999998331069946 1 -0.081000000238418579
   vertex 0.57999998331069946 1 0.11699999868869781
   vertex 0.57999998331069946 0 -0.081000000238418579
  endloop
 endfacet
 facet normal 1 0 0
  outer loop
   vertex 0.57999998331069946 0 -0.081000000238418579
   vertex 0.57999998331069946 1 0.11699999868869781
   vertex 0.57999998331069946 0 0.11699999868869781
  endloop
 endfacet
 facet normal -0 0 -1
  outer loop
   vertex 0.30000001192092896 1 -0.081000000238418579
   vertex 0.57999998331069946 1 -0.081000000238418579
   vertex 0.30000001192092896 0 -0.081000000238418579
  endloop
 endfacet
 facet normal 0 -0 -1
  outer loop
   vertex 0.30000001192092896 0 -0.081000000238418579
   vertex 0.57999998331069946 1 -0.081000000238418579
   vertex 0.57999998331069946 0 -0.081000000238418579
  endloop
 endfacet
 facet normal 1 0 0
  outer loop
   vertex 0.30000001192092896 1 -0.14900000393390656
   vertex 0.30000001192092896 1 -0.081000000238418579
   vertex 0.30000001192092896 0 -0.14900000393390656
  endloop
 endfacet
 facet normal 1 0 0
  outer loop
   vertex 0.30000001192092896 0 -0.14900000393390656
   vertex 0.30000001192092896 1 -0.081000000238418579
   vertex 0.30000001192092896 0 -0.081000000238418579
  endloop
 endfacet
 facet normal -0 0 1
  outer loop
   vertex 0.83300000429153442 1 -0.14900000393390656
   vertex 0.30000001192092896 1 -0.14900000393390656
   vertex 0.83300000429153442 0 -0.14900000393390656
  endloop
 endfacet
 facet normal 0 0 1
  outer loop
   vertex 0.83300000429153442 0 -0.14900000393390656
   vertex 0.30000001192092896 1 -0.14900000393390656
   vertex 0.30000001192092896 0 -0.14900000393390656
  endloop
 endfacet
 facet normal -1 0 0
  outer loop
   vertex 0.83300000429153442 1 0.33500000834465027
   vertex 0.83300000429153442 1 -0.14900000393390656
   vertex 0.83300000429153442 0 0.33500000834465027
  endloop
 endfacet
 facet normal -1 0 0
  outer loop
   vertex 0.83300000429153442 0 0.33500000834465027
   vertex 0.83300000429153442 1 -0.14900000393390656
   vertex 0.83300000429153442 0 -0.14900000393390656
  endloop
 endfacet
 facet normal -0 0 -1
  outer loop
   vertex 0.57999998331069946 1 0.33500000834465027
   vertex 0.83300000429153442 1 0.33500000834465027
   vertex 0.57999998331069946 0 0.33500000834465027
  endloop
 endfacet
 facet normal 0 -0 -1
  outer loop
   vertex 0.57999998331069946 0 0.33500000834465027
   vertex 0.83300000429153442 1 0.33500000834465027
   vertex 0.83300000429153442 0 0.33500000834465027
  endloop
 endfacet
 facet normal -1 0 0
  outer loop
   vertex 0.57999998331069946 1 0.64999997615814209
   vertex 0.57999998331069946 1 0.33500000834465027
   vertex 0.57999998331069946 0 0.64999997615814209
  endloop
 endfacet
 facet normal -1 0 0
  outer loop
   vertex 0.57999998331069946 0 0.64999997615814209
   vertex 0.57999998331069946 1 0.33500000834465027
   vertex 0.57999998331069946 0 0.33500000834465027
  endloop
 endfacet
 facet normal -0 0 -1
  outer loop
   vertex 0.26800000667572021 1 0.64999997615814209
   vertex 0.57999998331069946 1 0.64999997615814209
   vertex 0.26800000667572021 0 0.64999997615814209
  endloop
 endfacet
 facet normal 0 -0 -1
  outer loop
   vertex 0.26800000667572021 0 0.64999997615814209
   vertex 0.57999998331069946 1 0.64999997615814209
   vertex 0.57999998331069946 0 0.64999997615814209
  endloop
 endfacet
 facet normal 1 0 0
  outer loop
   vertex 0.26800000667572021 1 0.57200002670288086
   vertex 0.26800000667572021 1 0.64999997615814209
   vertex 0.26800000667572021 0 0.57200002670288086
  endloop
 endfacet
 facet normal 1 0 0
  outer loop
   vertex 0.26800000667572021 0 0.57200002670288086
   vertex 0.26800000667572021 1 0.64999997615814209
   vertex 0.26800000667572021 0 0.64999997615814209
  endloop
 endfacet
 facet normal -0 0 1
  outer loop
   vertex 0.42399999499320984 1 0.57200002670288086
   vertex 0.26800000667572021 1 0.57200002670288086
   vertex 0.42399999499320984 0 0.57200002670288086
  endloop
 endfacet
 facet normal 0 0 1
  outer loop
   vertex 0.42399999499320984 0 0.57200002670288086
   vertex 0.26800000667572021 1 0.57200002670288086
   vertex 0.26800000667572021 0 0.57200002670288086
  endloop
 endfacet
 facet normal 1 0 0
  outer loop
   vertex 0.42399999499320984 1 0.30500000715255737
   vertex 0.42399999499320984 1 0.57200002670288086
   vertex 0.42399999499320984 0 0.30500000715255737
  endloop
 endfacet
 facet normal 1 0 0
  outer loop
   vertex 0.42399999499320984 0 0.30500000715255737
   vertex 0.42399999499320984 1 0.57200002670288086
   vertex 0.42399999499320984 0 0.57200002670288086
  endloop
 endfacet
 facet normal -0 0 -1
  outer loop
   vertex -0.054000001400709152 1 0.30500000715255737
   vertex 0.42399999499320984 1 0.30500000715255737
   vertex -0.054000001400709152 0 0.30500000715255737
  endloop
 endfacet
 facet normal 0 -0 -1
  outer loop
   vertex -0.054000001400709152 0 0.30500000715255737
   vertex 0.42399999499320984 1 0.30500000715255737
   vertex 0.42399999499320984 0 0.30500000715255737
  endloop
 endfacet
 facet normal -1 0 0
  outer loop
   vertex -0.054000001400709152 1 0.57200002670288086
   vertex -0.054000001400709152 1 0.30500000715255737
   vertex -0.054000001400709152 0 0.57200002670288086
  endloop
 endfacet
 facet normal -1 0 0
  outer loop
   vertex -0.054000001400709152 0 0.57200002670288086
   vertex -0.054000001400709152 1 0.30500000715255737
   vertex -0.054000001400709152 0 0.30500000715255737
  endloop
 endfacet
 facet normal -0 0 -1
  outer loop
   vertex -0.3880000114440918 1 0.57200002670288086
   vertex -0.054000001400709152 1 0.57200002670288086
   vertex -0.3880000114440918 0 0.57200002670288086
  endloop
 endfacet
 facet normal 0 -0 -1
  outer loop
   vertex -0.3880000114440918 0 0.57200002670288086
   vertex -0.054000001400709152 1 0.57200002670288086
   vertex -0.054000001400709152 0 0.57200002670288086
  endloop
 endfacet
 facet normal 1 0 0
  outer loop
   vertex -0.3880000114440918 1 -0.17900000512599945
   vertex -0.3880000114440918 1 0.57200002670288086
   vertex -0.3880000114440918 0 -0.17900000512599945
  endloop
 endfacet
 facet normal 1 0 0
  outer loop
   vertex -0.3880000114440918 0 -0.17900000512599945
   vertex -0.3880000114440918 1 0.57200002670288086
   vertex -0.3880000114440918 0 0.57200002670288086
  endloop
 endfacet
 facet normal -0 0 -1
  outer loop
   vertex -0.68000000715255737 1 -0.17900000512599945
   vertex -0.3880000114440918 1 -0.17900000512599945
   vertex -0.68000000715255737 0 -0.17900000512599945
  endloop
 endfacet
 facet normal 0 -0 -1
  outer loop
   vertex -0.68000000715255737 0 -0.17900000512599945
   vertex -0.3880000114440918 1 -0.17900000512599945
   vertex -0.3880000114440918 0 -0.17900000512599945
  endloop
 endfacet
 facet normal -1 0 0
  outer loop
   vertex -0.68000000715255737 1 0.12999999523162842
   vertex -0.68000000715255737 1 -0.17900000512599945
   vertex -0.68000000715255737 0 0.12999999523162842
  endloop
 endfacet
 facet normal -1 0 0
  outer loop
   vertex -0.68000000715255737 0 0.12999999523162842
   vertex -0.68000000715255737 1 -0.17900000512599945
   vertex -0.68000000715255737 0 -0.17900000512599945
  endloop
 endfacet
 facet normal -0 0 -1
  outer loop
   vertex -0.99599999189376831 1 0.12999999523162842
   vertex -0.68000000715255737 1 0.12999999523162842
   vertex -0.99599999189376831 0 0.12999999523162842
  endloop
 endfacet
 facet normal 0 -0 -1
  outer loop
   vertex -0.99599999189376831 0 0.12999999523162842
   vertex -0.68000000715255737 1 0.12999999523162842
   vertex -0.68000000715255737 0 0.12999999523162842
  endloop
 endfacet
 facet normal -1 0 0
  outer loop
   vertex -0.99599999189376831 1 1
   vertex -0.99599999189376831 1 0.12999999523162842
   vertex -0.99599999189376831 0 1
  endloop
 endfacet
 facet normal -1 0 0
  outer loop
   vertex -0.99599999189376831 0 1
   vertex -0.99599999189376831 1 0.12999999523162842
   vertex -0.99599999189376831 0 0.12999999523162842
  endloop
 endfacet
 facet normal -0 0 1
  outer loop
   vertex 1 1 1
   vertex -0.99599999189376831 1 1
   vertex 1 0 1
  endloop
 endfacet
 facet normal 0 0 1
  outer loop
   vertex 1 0 1
   vertex -0.99599999189376831 1 1
   vertex -0.99599999189376831 0 1
  endloop
 endfacet
 facet normal 1 0 0
  outer loop
   vertex 1 1 -1
   vertex 1 1 1
   vertex 1 0 -1
  endloop
 endfacet
 facet normal 1 0 0
  outer loop
   vertex 1 0 -1
   vertex 1 1 1
   vertex 1 0 1
  endloop
 endfacet
 facet normal 0 1 0
  outer loop
   vertex -0.89200001955032349 1 -0.80000001192092896
   vertex -0.59299999475479126 1 -0.89999997615814209
   vertex -1.0011445283889771 1 -1
  endloop
 endfacet
 facet normal -0 1 0
  outer loop
   vertex -1.0011445283889771 1 -1
   vertex -0.59299999475479126 1 -0.89999997615814209
   vertex 0 1 -0.89999997615814209
  endloop
 endfacet
 facet normal 0 1 0
  outer loop
   vertex -1.0011445283889771 1 -1
   vertex 0 1 -0.89999997615814209
   vertex 1 1 -1
  endloop
 endfacet
 facet normal -0 1 0
  outer loop
   vertex 1 1 -1
   vertex 0 1 -0.89999997615814209
   vertex 0.35899999737739563 1 -0.47099998593330383
  endloop
 endfacet
 facet normal -0 1 0
  outer loop
   vertex 1 1 -1
   vertex 0.35899999737739563 1 -0.47099998593330383
   vertex 0.83300000429153442 1 -0.14900000393390656
  endloop
 endfacet
 facet normal 0 1 0
  outer loop
   vertex 0.83300000429153442 1 -0.14900000393390656
   vertex 0.35899999737739563 1 -0.47099998593330383
   vertex 0.35899999737739563 1 -0.23399999737739563
  endloop
 endfacet
 facet normal 0 1 -0
  outer loop
   vertex 0.83300000429153442 1 -0.14900000393390656
   vertex 0.35899999737739563 1 -0.23399999737739563
   vertex 0.30000001192092896 1 -0.14900000393390656
  endloop
 endfacet
 facet normal 0 1 0
  outer loop
   vertex 0.30000001192092896 1 -0.14900000393390656
   vertex 0.35899999737739563 1 -0.23399999737739563
   vertex 0.072999998927116394 1 -0.23399999737739563
  endloop
 endfacet
 facet normal 0 1 0
  outer loop
   vertex 0.30000001192092896 1 -0.14900000393390656
   vertex 0.072999998927116394 1 -0.23399999737739563
   vertex 0.30000001192092896 1 -0.081000000238418579
  endloop
 endfacet
 facet normal 0 1 0
  outer loop
   vertex 0.30000001192092896 1 -0.081000000238418579
   vertex 0.072999998927116394 1 -0.23399999737739563
   vertex 0.072999998927116394 1 0.11699999868869781
  endloop
 endfacet
 facet normal -0 1 0
  outer loop
   vertex 0.30000001192092896 1 -0.081000000238418579
   vertex 0.072999998927116394 1 0.11699999868869781
   vertex 0.57999998331069946 1 0.11699999868869781
  endloop
 endfacet
 facet normal 0 1 0
  outer loop
   vertex -0.89200001955032349 1 -0.80000001192092896
   vertex -1.0011445283889771 1 -1
   vertex -0.89200001955032349 1 -0.64600002765655518
  endloop
 endfacet
 facet normal 0 1 0
  outer loop
   vertex -0.89200001955032349 1 -0.64600002765655518
   vertex -1.0011445283889771 1 -1
   vertex -0.99599999189376831 1 -0.10100000351667404
  endloop
 endfacet
 facet normal 0 1 0
  outer loop
   vertex -0.89200001955032349 1 -0.64600002765655518
   vertex -0.99599999189376831 1 -0.10100000351667404
   vertex -0.82300001382827759 1 -0.39300000667572021
  endloop
 endfacet
 facet normal -0 1 0
  outer loop
   vertex -0.82300001382827759 1 -0.39300000667572021
   vertex -0.99599999189376831 1 -0.10100000351667404
   vertex -0.82300001382827759 1 -0.10100000351667404
  endloop
 endfacet
 facet normal 0 1 -0
  outer loop
   vertex -0.47900000214576721 1 -0.39300000667572021
   vertex -0.47900000214576721 1 -0.64600002765655518
   vertex -0.82300001382827759 1 -0.39300000667572021
  endloop
 endfacet
 facet normal 0 1 0
  outer loop
   vertex -0.82300001382827759 1 -0.39300000667572021
   vertex -0.47900000214576721 1 -0.64600002765655518
   vertex -0.89200001955032349 1 -0.64600002765655518
  endloop
 endfacet
 facet normal 0 1 0
  outer loop
   vertex -0.89200001955032349 1 -0.80000001192092896
   vertex -0.59299999475479126 1 -0.80000001192092896
   vertex -0.59299999475479126 1 -0.89999997615814209
  endloop
 endfacet
 facet normal -0 1 0
  outer loop
   vertex 0 1 -0.89999997615814209
   vertex 1.1115430725338932e-16 1 -0.73100000619888306
   vertex 0.35899999737739563 1 -0.47099998593330383
  endloop
 endfacet
 facet normal 0 1 -0
  outer loop
   vertex 0.35899999737739563 1 -0.47099998593330383
   vertex 1.1115430725338932e-16 1 -0.73100000619888306
   vertex -0.26499998569488525 1 -0.47099998593330383
  endloop
 endfacet
 facet normal 0 1 0
  outer loop
   vertex 1.1115430725338932e-16 1 -0.73100000619888306
   vertex -0.26499998569488525 1 -0.73100000619888306
   vertex -0.26499998569488525 1 -0.47099998593330383
  endloop
 endfacet
 facet normal 0 1 -0
  outer loop
   vertex 0.57999998331069946 1 0.11699999868869781
   vertex 0.57999998331069946 1 -0.081000000238418579
   vertex 0.30000001192092896 1 -0.081000000238418579
  endloop
 endfacet
 facet normal -0 1 0
  outer loop
   vertex 1 1 -1
   vertex 0.83300000429153442 1 -0.14900000393390656
   vertex 1 1 1
  endloop
 endfacet
 facet normal 0 1 0
  outer loop
   vertex 1 1 1
   vertex 0.83300000429153442 1 -0.14900000393390656
   vertex 0.83300000429153442 1 0.33500000834465027
  endloop
 endfacet
 facet normal 0 1 -0
  outer loop
   vertex 1 1 1
   vertex 0.83300000429153442 1 0.33500000834465027
   vertex 0.57999998331069946 1 0.64999997615814209
  endloop
 endfacet
 facet normal 0 1 0
  outer loop
   vertex 0.57999998331069946 1 0.64999997615814209
   vertex 0.83300000429153442 1 0.33500000834465027
   vertex 0.57999998331069946 1 0.33500000834465027
  endloop
 endfacet
 facet normal 0 1 0
  outer loop
   vertex 0.57999998331069946 1 0.64999997615814209
   vertex 0.26800000667572021 1 0.64999997615814209
   vertex 1 1 1
  endloop
 endfacet
 facet normal 0 1 -0
  outer loop
   vertex 1 1 1
   vertex 0.26800000667572021 1 0.64999997615814209
   vertex -0.99599999189376831 1 1
  endloop
 endfacet
 facet normal 0 1 0
  outer loop
   vertex -0.99599999189376831 1 1
   vertex 0.26800000667572021 1 0.64999997615814209
   vertex -0.054000001400709152 1 0.57200002670288086
  endloop
 endfacet
 facet normal 0 1 0
  outer loop
   vertex -0.054000001400709152 1 0.57200002670288086
   vertex 0.26800000667572021 1 0.64999997615814209
   vertex 0.26800000667572021 1 0.57200002670288086
  endloop
 endfacet
 facet normal 0 1 0
  outer loop
   vertex -0.054000001400709152 1 0.57200002670288086
   vertex 0.26800000667572021 1 0.57200002670288086
   vertex -0.054000001400709152 1 0.30500000715255737
  endloop
 endfacet
 facet normal 0 1 0
  outer loop
   vertex -0.054000001400709152 1 0.30500000715255737
   vertex 0.26800000667572021 1 0.57200002670288086
   vertex 0.42399999499320984 1 0.30500000715255737
  endloop
 endfacet
 facet normal 0 1 0
  outer loop
   vertex 0.26800000667572021 1 0.57200002670288086
   vertex 0.42399999499320984 1 0.57200002670288086
   vertex 0.42399999499320984 1 0.30500000715255737
  endloop
 endfacet
 facet normal 0 1 -0
  outer loop
   vertex -0.054000001400709152 1 0.57200002670288086
   vertex -0.3880000114440918 1 0.57200002670288086
   vertex -0.99599999189376831 1 1
  endloop
 endfacet
 facet normal 0 1 0
  outer loop
   vertex -0.99599999189376831 1 1
   vertex -0.3880000114440918 1 0.57200002670288086
   vertex -0.99599999189376831 1 0.12999999523162842
  endloop
 endfacet
 facet normal 0 1 0
  outer loop
   vertex -0.99599999189376831 1 0.12999999523162842
   vertex -0.3880000114440918 1 0.57200002670288086
   vertex -0.68000000715255737 1 0.12999999523162842
  endloop
 endfacet
 facet normal 0 1 0
  outer loop
   vertex -0.68000000715255737 1 0.12999999523162842
   vertex -0.3880000114440918 1 0.57200002670288086
   vertex -0.3880000114440918 1 -0.17900000512599945
  endloop
 endfacet
 facet normal 0 1 0
  outer loop
   vertex -0.68000000715255737 1 0.12999999523162842
   vertex -0.3880000114440918 1 -0.17900000512599945
   vertex -0.68000000715255737 1 -0.17900000512599945
  endloop
 endfacet
 facet normal -0 0 1
  outer loop
   vertex -0.82300001382827759 1 -0.10100000351667404
   vertex -0.99599999189376831 1 -0.10100000351667404
   vertex -0.82300001382827759 0 -0.10100000351667404
  endloop
 endfacet
 facet normal 0 0 1
  outer loop
   vertex -0.82300001382827759 0 -0.10100000351667404
   vertex -0.99599999189376831 1 -0.10100000351667404
   vertex -0.99599999189376831 0 -0.10100000351667404
  endloop
 endfacet
 facet normal 0 -1 -0
  outer loop
   vertex -0.59299999475479126 0 -0.89999997615814209
   vertex -0.89200001955032349 0 -0.80000001192092896
   vertex -1.0011445283889771 0 -1
  endloop
 endfacet
 facet normal -0 -1 0
  outer loop
   vertex -1.0011445283889771 0 -1
   vertex -0.89200001955032349 0 -0.80000001192092896
   vertex -0.89200001955032349 0 -0.64600002765655518
  endloop
 endfacet
 facet normal -0 -1 0
  outer loop
   vertex -1.0011445283889771 0 -1
   vertex -0.89200001955032349 0 -0.64600002765655518
   vertex -0.99599999189376831 0 -0.10100000351667404
  endloop
 endfacet
 facet normal 0 -1 0
  outer loop
   vertex -0.99599999189376831 0 -0.10100000351667404
   vertex -0.89200001955032349 0 -0.64600002765655518
   vertex -0.82300001382827759 0 -0.39300000667572021
  endloop
 endfacet
 facet normal 0 -1 0
  outer loop
   vertex -0.99599999189376831 0 -0.10100000351667404
   vertex -0.82300001382827759 0 -0.39300000667572021
   vertex -0.82300001382827759 0 -0.10100000351667404
  endloop
 endfacet
 facet normal 0 -1 0
  outer loop
   vertex -0.59299999475479126 0 -0.89999997615814209
   vertex -1.0011445283889771 0 -1
   vertex 0 0 -0.89999997615814209
  endloop
 endfacet
 facet normal 0 -1 0
  outer loop
   vertex 0 0 -0.89999997615814209
   vertex -1.0011445283889771 0 -1
   vertex 1 0 -1
  endloop
 endfacet
 facet normal 0 -1 0
  outer loop
   vertex 0 0 -0.89999997615814209
   vertex 1 0 -1
   vertex 0.35899999737739563 0 -0.47099998593330383
  endloop
 endfacet
 facet normal 0 -1 0
  outer loop
   vertex 0.35899999737739563 0 -0.47099998593330383
   vertex 1 0 -1
   vertex 0.83300000429153442 0 -0.14900000393390656
  endloop
 endfacet
 facet normal 0 -1 0
  outer loop
   vertex 0.35899999737739563 0 -0.47099998593330383
   vertex 0.83300000429153442 0 -0.14900000393390656
   vertex 0.35899999737739563 0 -0.23399999737739563
  endloop
 endfacet
 facet normal -0 -1 0
  outer loop
   vertex 0.35899999737739563 0 -0.23399999737739563
   vertex 0.83300000429153442 0 -0.14900000393390656
   vertex 0.30000001192092896 0 -0.14900000393390656
  endloop
 endfacet
 facet normal 0 -1 -0
  outer loop
   vertex 0.35899999737739563 0 -0.23399999737739563
   vertex 0.30000001192092896 0 -0.14900000393390656
   vertex 0.072999998927116394 0 -0.23399999737739563
  endloop
 endfacet
 facet normal -0 -1 0
  outer loop
   vertex 0.072999998927116394 0 -0.23399999737739563
   vertex 0.30000001192092896 0 -0.14900000393390656
   vertex 0.30000001192092896 0 -0.081000000238418579
  endloop
 endfacet
 facet normal -0 -1 0
  outer loop
   vertex 0.072999998927116394 0 -0.23399999737739563
   vertex 0.30000001192092896 0 -0.081000000238418579
   vertex 0.072999998927116394 0 0.11699999868869781
  endloop
 endfacet
 facet normal 0 -1 0
  outer loop
   vertex 0.072999998927116394 0 0.11699999868869781
   vertex 0.30000001192092896 0 -0.081000000238418579
   vertex 0.57999998331069946 0 0.11699999868869781
  endloop
 endfacet
 facet normal 0 -1 -0
  outer loop
   vertex 1 0 -1
   vertex 1 0 1
   vertex 0.83300000429153442 0 -0.14900000393390656
  endloop
 endfacet
 facet normal 0 -1 0
  outer loop
   vertex 0.83300000429153442 0 -0.14900000393390656
   vertex 1 0 1
   vertex 0.83300000429153442 0 0.33500000834465027
  endloop
 endfacet
 facet normal 0 -1 0
  outer loop
   vertex -0.3880000114440918 0 0.57200002670288086
   vertex -0.054000001400709152 0 0.57200002670288086
   vertex -0.99599999189376831 0 1
  endloop
 endfacet
 facet normal 0 -1 0
  outer loop
   vertex -0.99599999189376831 0 1
   vertex -0.054000001400709152 0 0.57200002670288086
   vertex 0.26800000667572021 0 0.64999997615814209
  endloop
 endfacet
 facet normal 0 -1 0
  outer loop
   vertex -0.99599999189376831 0 1
   vertex 0.26800000667572021 0 0.64999997615814209
   vertex 1 0 1
  endloop
 endfacet
 facet normal 0 -1 0
  outer loop
   vertex 1 0 1
   vertex 0.26800000667572021 0 0.64999997615814209
   vertex 0.57999998331069946 0 0.64999997615814209
  endloop
 endfacet
 facet normal 0 -1 0
  outer loop
   vertex 1 0 1
   vertex 0.57999998331069946 0 0.64999997615814209
   vertex 0.83300000429153442 0 0.33500000834465027
  endloop
 endfacet
 facet normal 0 -1 0
  outer loop
   vertex 0.83300000429153442 0 0.33500000834465027
   vertex 0.57999998331069946 0 0.64999997615814209
   vertex 0.57999998331069946 0 0.33500000834465027
  endloop
 endfacet
 facet normal 0 -1 0
  outer loop
   vertex -0.99599999189376831 0 1
   vertex -0.99599999189376831 0 0.12999999523162842
   vertex -0.3880000114440918 0 0.57200002670288086
  endloop
 endfacet
 facet normal 0 -1 0
  outer loop
   vertex -0.3880000114440918 0 0.57200002670288086
   vertex -0.99599999189376831 0 0.12999999523162842
   vertex -0.68000000715255737 0 0.12999999523162842
  endloop
 endfacet
 facet normal 0 -1 0
  outer loop
   vertex -0.3880000114440918 0 0.57200002670288086
   vertex -0.68000000715255737 0 0.12999999523162842
   vertex -0.3880000114440918 0 -0.17900000512599945
  endloop
 endfacet
 facet normal 0 -1 0
  outer loop
   vertex -0.3880000114440918 0 -0.17900000512599945
   vertex -0.68000000715255737 0 0.12999999523162842
   vertex -0.68000000715255737 0 -0.17900000512599945
  endloop
 endfacet
 facet normal 0 -1 0
  outer loop
   vertex 0.26800000667572021 0 0.64999997615814209
   vertex -0.054000001400709152 0 0.57200002670288086
   vertex 0.26800000667572021 0 0.57200002670288086
  endloop
 endfacet
 facet normal 0 -1 0
  outer loop
   vertex 0.26800000667572021 0 0.57200002670288086
   vertex -0.054000001400709152 0 0.57200002670288086
   vertex -0.054000001400709152 0 0.30500000715255737
  endloop
 endfacet
 facet normal 0 -1 0
  outer loop
   vertex 0.26800000667572021 0 0.57200002670288086
   vertex -0.054000001400709152 0 0.30500000715255737
   vertex 0.42399999499320984 0 0.30500000715255737
  endloop
 endfacet
 facet normal -0 -1 -0
  outer loop
   vertex 0.42399999499320984 0 0.30500000715255737
   vertex 0.42399999499320984 0 0.57200002670288086
   vertex 0.26800000667572021 0 0.57200002670288086
  endloop
 endfacet
 facet normal 0 -1 0
  outer loop
   vertex 0.30000001192092896 0 -0.081000000238418579
   vertex 0.57999998331069946 0 -0.081000000238418579
   vertex 0.57999998331069946 0 0.11699999868869781
  endloop
 endfacet
 facet normal 0 -1 0
  outer loop
   vertex 0 0 -0.89999997615814209
   vertex 0.35899999737739563 0 -0.47099998593330383
   vertex 1.1115430725338932e-16 0 -0.73100000619888306
  endloop
 endfacet
 facet normal -0 -1 0
  outer loop
   vertex 1.1115430725338932e-16 0 -0.73100000619888306
   vertex 0.35899999737739563 0 -0.47099998593330383
   vertex -0.26499998569488525 0 -0.47099998593330383
  endloop
 endfacet
 facet normal 0 -1 0
  outer loop
   vertex 1.1115430725338932e-16 0 -0.73100000619888306
   vertex -0.26499998569488525 0 -0.47099998593330383
   vertex -0.26499998569488525 0 -0.73100000619888306
  endloop
 endfacet
 facet normal -0 -1 -0
  outer loop
   vertex -0.59299999475479126 0 -0.89999997615814209
   vertex -0.59299999475479126 0 -0.80000001192092896
   vertex -0.89200001955032349 0 -0.80000001192092896
  endloop
 endfacet
 facet normal 0 -1 0
  outer loop
   vertex -0.89200001955032349 0 -0.64600002765655518
   vertex -0.47900000214576721 0 -0.64600002765655518
   vertex -0.82300001382827759 0 -0.39300000667572021
  endloop
 endfacet
 facet normal 0 -1 0
  outer loop
   vertex -0.82300001382827759 0 -0.39300000667572021
   vertex -0.47900000214576721 0 -0.64600002765655518
   vertex -0.47900000214576721 0 -0.39300000667572021
  endloop
 endfacet
 facet normal 0 0 -1
  outer loop
   vertex 1 0 -1
   vertex -1.0011445283889771 0 -1
   vertex 1 1 -1
  endloop
 endfacet
 facet normal 0 0 -1
  outer loop
   vertex 1 1 -1
   vertex -1.0011445283889771 0 -1
   vertex -1.0011445283889771 1 -1
  endloop
 endfacet
 facet normal -0.99998362684161801 0 0.0057224163326159904
  outer loop
   vertex -0.99599999189376831 1 -0.10100000351667404
   vertex -1.0011445283889771 1 -1
   vertex -0.99599999189376831 0 -0.10100000351667404
  endloop
 endfacet
 facet normal -0.99998362684161801 0 0.0057224163326159904
  outer loop
   vertex -0.99599999189376831 0 -0.10100000351667404
   vertex -1.0011445283889771 1 -1
   vertex -1.0011445283889771 0 -1
  endloop
 endfacet
endsolid
