solid Visualization Toolkit generated SLA File
 facet normal 1 0 0
  outer loop
   vertex -0.020999999716877937 1 -0.18799999356269836
   vertex -0.020999999716877937 1 0.10100000351667404
   vertex -0.020999999716877937 0 -0.18799999356269836
  endloop
 endfacet
 facet normal 1 0 0
  outer loop
   vertex -0.020999999716877937 0 -0.18799999356269836
   vertex -0.020999999716877937 1 0.10100000351667404
   vertex -0.020999999716877937 0 0.10100000351667404
  endloop
 endfacet
 facet normal -0 0 1
  outer loop
   vertex -0.020999999716877937 1 0.10100000351667404
   vertex -0.28400000929832458 1 0.10100000351667404
   vertex -0.020999999716877937 0 0.10100000351667404
  endloop
 endfacet
 facet normal 0 0 1
  outer loop
   vertex -0.020999999716877937 0 0.10100000351667404
   vertex -0.28400000929832458 1 0.10100000351667404
   vertex -0.28400000929832458 0 0.10100000351667404
  endloop
 endfacet
 facet normal -1 0 0
  outer loop
   vertex -0.28400000929832458 1 0.10100000351667404
   vertex -0.28400000929832458 1 -0.18799999356269836
   vertex -0.28400000929832458 0 0.10100000351667404
  endloop
 endfacet
 facet normal -1 0 0
  outer loop
   vertex -0.28400000929832458 0 0.10100000351667404
   vertex -0.28400000929832458 1 -0.18799999356269836
   vertex -0.28400000929832458 0 -0.18799999356269836
  endloop
 endfacet
 facet normal -0 0 -1
  outer loop
   vertex -0.28400000929832458 1 -0.18799999356269836
   vertex -0.020999999716877937 1 -0.18799999356269836
   vertex -0.28400000929832458 0 -0.18799999356269836
  endloop
 endfacet
 facet normal 0 -0 -1
  outer loop
   vertex -0.28400000929832458 0 -0.18799999356269836
   vertex -0.020999999716877937 1 -0.18799999356269836
   vertex -0.020999999716877937 0 -0.18799999356269836
  endloop
 endfacet
 facet normal 0 1 -0
  outer loop
   vertex -0.020999999716877937 1 0.10100000351667404
   vertex -0.020999999716877937 1 -0.18799999356269836
   vertex -0.28400000929832458 1 0.10100000351667404
  endloop
 endfacet
 facet normal 0 1 0
  outer loop
   vertex -0.28400000929832458 1 0.10100000351667404
   vertex -0.020999999716877937 1 -0.18799999356269836
   vertex -0.28400000929832458 1 -0.18799999356269836
  endloop
 endfacet
 facet normal 0 -1 -0
  outer loop
   vertex -0.020999999716877937 0 -0.18799999356269836
   vertex -0.020999999716877937 0 0.10100000351667404
   vertex -0.28400000929832458 0 -0.18799999356269836
  endloop
 endfacet
 facet normal -0 -1 0
  outer loop
   vertex -0.28400000929832458 0 -0.18799999356269836
   vertex -0.020999999716877937 0 0.10100000351667404
   vertex -0.28400000929832458 0 0.10100000351667404
  endloop
 endfacet
endsolid
