# Generated by Visualization Toolkit
mtllib externe_scale.mtl
v -0.020999999716877937 1 -0.18799999356269836
v -0.020999999716877937 1 0.10100000351667404
v -0.020999999716877937 0 -0.18799999356269836
v -0.020999999716877937 0 0.10100000351667404
v -0.2840000092983246 1 0.10100000351667404
v -0.2840000092983246 0 0.10100000351667404
v -0.2840000092983246 1 -0.18799999356269836
v -0.2840000092983246 0 -0.18799999356269836
usemtl externe_scale
f 1 2 3
f 3 2 4
f 2 5 4
f 4 5 6
f 5 7 6
f 6 7 8
f 7 1 8
f 8 1 3
f 2 1 5
f 5 1 7
f 3 4 8
f 8 4 6
