solid 
facet normal 0.9999836 0 -0.0057224166
 outer loop
  vertex -0.996 0 -0.101
  vertex -1.0011445 0 -1
  vertex -0.996 1 -0.101
 endloop
endfacet
facet normal 0.9999836 0 -0.0057224166
 outer loop
  vertex -0.996 1 -0.101
  vertex -1.0011445 0 -1
  vertex -1.0011445 1 -1
 endloop
endfacet
facet normal 1 -0 0
 outer loop
  vertex -0.996 1 0.13
  vertex -0.996 1 1
  vertex -0.996 0 0.13
 endloop
endfacet
facet normal 1 -0 0
 outer loop
  vertex -0.996 0 0.13
  vertex -0.996 1 1
  vertex -0.996 0 1
 endloop
endfacet
facet normal -1 -0 -0
 outer loop
  vertex -1.496 0 -1
  vertex -1.496 0 1
  vertex -1.496 1 -1
 endloop
endfacet
facet normal -1 -0 -0
 outer loop
  vertex -1.496 1 -1
  vertex -1.496 0 1
  vertex -1.496 1 1
 endloop
endfacet
facet normal 0 -0 1
 outer loop
  vertex -0.021 1 -0.188
  vertex -0.284 1 -0.188
  vertex -0.021 0 -0.188
 endloop
endfacet
facet normal -0 0 1
 outer loop
  vertex -0.021 0 -0.188
  vertex -0.284 1 -0.188
  vertex -0.284 0 -0.188
 endloop
endfacet
facet normal 1 -0 0
 outer loop
  vertex -0.284 1 -0.188
  vertex -0.284 1 0.101
  vertex -0.284 0 -0.188
 endloop
endfacet
facet normal 1 -0 0
 outer loop
  vertex -0.284 0 -0.188
  vertex -0.284 1 0.101
  vertex -0.284 0 0.101
 endloop
endfacet
facet normal 0 0 -1
 outer loop
  vertex -0.284 1 0.101
  vertex -0.021 1 0.101
  vertex -0.284 0 0.101
 endloop
endfacet
facet normal -0 0 -1
 outer loop
  vertex -0.284 0 0.101
  vertex -0.021 1 0.101
  vertex -0.021 0 0.101
 endloop
endfacet
facet normal -1 0 0
 outer loop
  vertex -0.021 1 0.101
  vertex -0.021 1 -0.188
  vertex -0.021 0 0.101
 endloop
endfacet
facet normal -1 0 0
 outer loop
  vertex -0.021 0 0.101
  vertex -0.021 1 -0.188
  vertex -0.021 0 -0.188
 endloop
endfacet
facet normal -1 0 0
 outer loop
  vertex -0.823 1 -0.101
  vertex -0.823 1 -0.393
  vertex -0.823 0 -0.101
 endloop
endfacet
facet normal -1 0 0
 outer loop
  vertex -0.823 0 -0.101
  vertex -0.823 1 -0.393
  vertex -0.823 0 -0.393
 endloop
endfacet
facet normal 0 0 -1
 outer loop
  vertex -0.823 1 -0.393
  vertex -0.479 1 -0.393
  vertex -0.823 0 -0.393
 endloop
endfacet
facet normal -0 0 -1
 outer loop
  vertex -0.823 0 -0.393
  vertex -0.479 1 -0.393
  vertex -0.479 0 -0.393
 endloop
endfacet
facet normal -1 0 0
 outer loop
  vertex -0.479 1 -0.393
  vertex -0.479 1 -0.646
  vertex -0.479 0 -0.393
 endloop
endfacet
facet normal -1 0 0
 outer loop
  vertex -0.479 0 -0.393
  vertex -0.479 1 -0.646
  vertex -0.479 0 -0.646
 endloop
endfacet
facet normal 0 -0 1
 outer loop
  vertex -0.479 1 -0.646
  vertex -0.892 1 -0.646
  vertex -0.479 0 -0.646
 endloop
endfacet
facet normal -0 0 1
 outer loop
  vertex -0.479 0 -0.646
  vertex -0.892 1 -0.646
  vertex -0.892 0 -0.646
 endloop
endfacet
facet normal -1 0 0
 outer loop
  vertex -0.892 1 -0.646
  vertex -0.892 1 -0.8
  vertex -0.892 0 -0.646
 endloop
endfacet
facet normal -1 0 0
 outer loop
  vertex -0.892 0 -0.646
  vertex -0.892 1 -0.8
  vertex -0.892 0 -0.8
 endloop
endfacet
facet normal 0 0 -1
 outer loop
  vertex -0.892 1 -0.8
  vertex -0.593 1 -0.8
  vertex -0.892 0 -0.8
 endloop
endfacet
facet normal -0 0 -1
 outer loop
  vertex -0.892 0 -0.8
  vertex -0.593 1 -0.8
  vertex -0.593 0 -0.8
 endloop
endfacet
facet normal -1 0 0
 outer loop
  vertex -0.593 1 -0.8
  vertex -0.593 1 -0.9
  vertex -0.593 0 -0.8
 endloop
endfacet
facet normal -1 0 0
 outer loop
  vertex -0.593 0 -0.8
  vertex -0.593 1 -0.9
  vertex -0.593 0 -0.9
 endloop
endfacet
facet normal 0 0 -1
 outer loop
  vertex -0.593 1 -0.9
  vertex 0 1 -0.9
  vertex -0.593 0 -0.9
 endloop
endfacet
facet normal -0 0 -1
 outer loop
  vertex -0.593 0 -0.9
  vertex 0 1 -0.9
  vertex 0 0 -0.9
 endloop
endfacet
facet normal 1 0 -6.577179e-16
 outer loop
  vertex 0 1 -0.9
  vertex 1.1115431e-16 1 -0.731
  vertex 0 0 -0.9
 endloop
endfacet
facet normal 1 0 -6.577179e-16
 outer loop
  vertex 0 0 -0.9
  vertex 1.1115431e-16 1 -0.731
  vertex 1.1115431e-16 0 -0.731
 endloop
endfacet
facet normal 0 -0 1
 outer loop
  vertex 1.1115431e-16 1 -0.731
  vertex -0.265 1 -0.731
  vertex 1.1115431e-16 0 -0.731
 endloop
endfacet
facet normal -0 0 1
 outer loop
  vertex 1.1115431e-16 0 -0.731
  vertex -0.265 1 -0.731
  vertex -0.265 0 -0.731
 endloop
endfacet
facet normal 1 -0 0
 outer loop
  vertex -0.265 1 -0.731
  vertex -0.265 1 -0.471
  vertex -0.265 0 -0.731
 endloop
endfacet
facet normal 1 -0 0
 outer loop
  vertex -0.265 0 -0.731
  vertex -0.265 1 -0.471
  vertex -0.265 0 -0.471
 endloop
endfacet
facet normal 0 0 -1
 outer loop
  vertex -0.265 1 -0.471
  vertex 0.359 1 -0.471
  vertex -0.265 0 -0.471
 endloop
endfacet
facet normal -0 0 -1
 outer loop
  vertex -0.265 0 -0.471
  vertex 0.359 1 -0.471
  vertex 0.359 0 -0.471
 endloop
endfacet
facet normal 1 -0 0
 outer loop
  vertex 0.359 1 -0.471
  vertex 0.359 1 -0.234
  vertex 0.359 0 -0.471
 endloop
endfacet
facet normal 1 -0 0
 outer loop
  vertex 0.359 0 -0.471
  vertex 0.359 1 -0.234
  vertex 0.359 0 -0.234
 endloop
endfacet
facet normal 0 -0 1
 outer loop
  vertex 0.359 1 -0.234
  vertex 0.073 1 -0.234
  vertex 0.359 0 -0.234
 endloop
endfacet
facet normal -0 0 1
 outer loop
  vertex 0.359 0 -0.234
  vertex 0.073 1 -0.234
  vertex 0.073 0 -0.234
 endloop
endfacet
facet normal 1 -0 0
 outer loop
  vertex 0.073 1 -0.234
  vertex 0.073 1 0.117
  vertex 0.073 0 -0.234
 endloop
endfacet
facet normal 1 -0 0
 outer loop
  vertex 0.073 0 -0.234
  vertex 0.073 1 0.117
  vertex 0.073 0 0.117
 endloop
endfacet
facet normal 0 0 -1
 outer loop
  vertex 0.073 1 0.117
  vertex 0.58 1 0.117
  vertex 0.073 0 0.117
 endloop
endfacet
facet normal -0 0 -1
 outer loop
  vertex 0.073 0 0.117
  vertex 0.58 1 0.117
  vertex 0.58 0 0.117
 endloop
endfacet
facet normal -1 0 0
 outer loop
  vertex 0.58 1 0.117
  vertex 0.58 1 -0.081
  vertex 0.58 0 0.117
 endloop
endfacet
facet normal -1 0 0
 outer loop
  vertex 0.58 0 0.117
  vertex 0.58 1 -0.081
  vertex 0.58 0 -0.081
 endloop
endfacet
facet normal 0 -0 1
 outer loop
  vertex 0.58 1 -0.081
  vertex 0.3 1 -0.081
  vertex 0.58 0 -0.081
 endloop
endfacet
facet normal -0 0 1
 outer loop
  vertex 0.58 0 -0.081
  vertex 0.3 1 -0.081
  vertex 0.3 0 -0.081
 endloop
endfacet
facet normal -1 0 0
 outer loop
  vertex 0.3 1 -0.081
  vertex 0.3 1 -0.149
  vertex 0.3 0 -0.081
 endloop
endfacet
facet normal -1 0 0
 outer loop
  vertex 0.3 0 -0.081
  vertex 0.3 1 -0.149
  vertex 0.3 0 -0.149
 endloop
endfacet
facet normal 0 0 -1
 outer loop
  vertex 0.3 1 -0.149
  vertex 0.833 1 -0.149
  vertex 0.3 0 -0.149
 endloop
endfacet
facet normal -0 0 -1
 outer loop
  vertex 0.3 0 -0.149
  vertex 0.833 1 -0.149
  vertex 0.833 0 -0.149
 endloop
endfacet
facet normal 1 -0 0
 outer loop
  vertex 0.833 1 -0.149
  vertex 0.833 1 0.335
  vertex 0.833 0 -0.149
 endloop
endfacet
facet normal 1 -0 0
 outer loop
  vertex 0.833 0 -0.149
  vertex 0.833 1 0.335
  vertex 0.833 0 0.335
 endloop
endfacet
facet normal 0 -0 1
 outer loop
  vertex 0.833 1 0.335
  vertex 0.58 1 0.335
  vertex 0.833 0 0.335
 endloop
endfacet
facet normal -0 0 1
 outer loop
  vertex 0.833 0 0.335
  vertex 0.58 1 0.335
  vertex 0.58 0 0.335
 endloop
endfacet
facet normal 1 -0 0
 outer loop
  vertex 0.58 1 0.335
  vertex 0.58 1 0.65
  vertex 0.58 0 0.335
 endloop
endfacet
facet normal 1 -0 0
 outer loop
  vertex 0.58 0 0.335
  vertex 0.58 1 0.65
  vertex 0.58 0 0.65
 endloop
endfacet
facet normal 0 -0 1
 outer loop
  vertex 0.58 1 0.65
  vertex 0.268 1 0.65
  vertex 0.58 0 0.65
 endloop
endfacet
facet normal -0 0 1
 outer loop
  vertex 0.58 0 0.65
  vertex 0.268 1 0.65
  vertex 0.268 0 0.65
 endloop
endfacet
facet normal -1 0 0
 outer loop
  vertex 0.268 1 0.65
  vertex 0.268 1 0.572
  vertex 0.268 0 0.65
 endloop
endfacet
facet normal -1 0 0
 outer loop
  vertex 0.268 0 0.65
  vertex 0.268 1 0.572
  vertex 0.268 0 0.572
 endloop
endfacet
facet normal 0 0 -1
 outer loop
  vertex 0.268 1 0.572
  vertex 0.424 1 0.572
  vertex 0.268 0 0.572
 endloop
endfacet
facet normal -0 0 -1
 outer loop
  vertex 0.268 0 0.572
  vertex 0.424 1 0.572
  vertex 0.424 0 0.572
 endloop
endfacet
facet normal -1 0 0
 outer loop
  vertex 0.424 1 0.572
  vertex 0.424 1 0.305
  vertex 0.424 0 0.572
 endloop
endfacet
facet normal -1 0 0
 outer loop
  vertex 0.424 0 0.572
  vertex 0.424 1 0.305
  vertex 0.424 0 0.305
 endloop
endfacet
facet normal 0 -0 1
 outer loop
  vertex 0.424 1 0.305
  vertex -0.054 1 0.305
  vertex 0.424 0 0.305
 endloop
endfacet
facet normal -0 0 1
 outer loop
  vertex 0.424 0 0.305
  vertex -0.054 1 0.305
  vertex -0.054 0 0.305
 endloop
endfacet
facet normal 1 -0 0
 outer loop
  vertex -0.054 1 0.305
  vertex -0.054 1 0.572
  vertex -0.054 0 0.305
 endloop
endfacet
facet normal 1 -0 0
 outer loop
  vertex -0.054 0 0.305
  vertex -0.054 1 0.572
  vertex -0.054 0 0.572
 endloop
endfacet
facet normal 0 -0 1
 outer loop
  vertex -0.054 1 0.572
  vertex -0.388 1 0.572
  vertex -0.054 0 0.572
 endloop
endfacet
facet normal -0 0 1
 outer loop
  vertex -0.054 0 0.572
  vertex -0.388 1 0.572
  vertex -0.388 0 0.572
 endloop
endfacet
facet normal -1 0 0
 outer loop
  vertex -0.388 1 0.572
  vertex -0.388 1 -0.179
  vertex -0.388 0 0.572
 endloop
endfacet
facet normal -1 0 0
 outer loop
  vertex -0.388 0 0.572
  vertex -0.388 1 -0.179
  vertex -0.388 0 -0.179
 endloop
endfacet
facet normal 0 -0 1
 outer loop
  vertex -0.388 1 -0.179
  vertex -0.68 1 -0.179
  vertex -0.388 0 -0.179
 endloop
endfacet
facet normal -0 0 1
 outer loop
  vertex -0.388 0 -0.179
  vertex -0.68 1 -0.179
  vertex -0.68 0 -0.179
 endloop
endfacet
facet normal 1 -0 0
 outer loop
  vertex -0.68 1 -0.179
  vertex -0.68 1 0.13
  vertex -0.68 0 -0.179
 endloop
endfacet
facet normal 1 -0 0
 outer loop
  vertex -0.68 0 -0.179
  vertex -0.68 1 0.13
  vertex -0.68 0 0.13
 endloop
endfacet
facet normal 0 -1 0
 outer loop
  vertex -0.68 0 -0.179
  vertex -0.68 0 0.13
  vertex -0.823 0 -0.101
 endloop
endfacet
facet normal 0 -1 -0
 outer loop
  vertex -0.823 0 -0.101
  vertex -0.68 0 0.13
  vertex -0.996 0 0.13
 endloop
endfacet
facet normal 0 -1 0
 outer loop
  vertex -0.823 0 -0.101
  vertex -0.996 0 0.13
  vertex -0.996 0 -0.101
 endloop
endfacet
facet normal 0 -1 0
 outer loop
  vertex -0.996 0 -0.101
  vertex -0.996 0 0.13
  vertex -1.496 0 1
 endloop
endfacet
facet normal 0 -1 0
 outer loop
  vertex -0.996 0 -0.101
  vertex -1.496 0 1
  vertex -1.496 0 -1
 endloop
endfacet
facet normal 0 -1 0
 outer loop
  vertex -0.996 0 0.13
  vertex -0.996 0 1
  vertex -1.496 0 1
 endloop
endfacet
facet normal -0 -1 0
 outer loop
  vertex -1.496 0 -1
  vertex -1.0011445 0 -1
  vertex -0.996 0 -0.101
 endloop
endfacet
facet normal -0 -1 0
 outer loop
  vertex -0.823 0 -0.101
  vertex -0.823 0 -0.393
  vertex -0.68 0 -0.179
 endloop
endfacet
facet normal 0 -1 0
 outer loop
  vertex -0.68 0 -0.179
  vertex -0.823 0 -0.393
  vertex -0.479 0 -0.393
 endloop
endfacet
facet normal -0 -1 0
 outer loop
  vertex -0.68 0 -0.179
  vertex -0.479 0 -0.393
  vertex -0.388 0 -0.179
 endloop
endfacet
facet normal -0 -1 0
 outer loop
  vertex -0.388 0 -0.179
  vertex -0.479 0 -0.393
  vertex -0.284 0 -0.188
 endloop
endfacet
facet normal -0 -1 -0
 outer loop
  vertex -0.388 0 -0.179
  vertex -0.284 0 -0.188
  vertex -0.284 0 0.101
 endloop
endfacet
facet normal 0 -1 0
 outer loop
  vertex -0.284 0 -0.188
  vertex -0.479 0 -0.393
  vertex -0.265 0 -0.471
 endloop
endfacet
facet normal 0 -1 0
 outer loop
  vertex -0.265 0 -0.471
  vertex -0.479 0 -0.393
  vertex -0.479 0 -0.646
 endloop
endfacet
facet normal 0 -1 0
 outer loop
  vertex -0.265 0 -0.471
  vertex -0.479 0 -0.646
  vertex -0.265 0 -0.731
 endloop
endfacet
facet normal 0 -1 0
 outer loop
  vertex -0.265 0 -0.731
  vertex -0.479 0 -0.646
  vertex -0.593 0 -0.8
 endloop
endfacet
facet normal 0 -1 0
 outer loop
  vertex -0.265 0 -0.731
  vertex -0.593 0 -0.8
  vertex -0.593 0 -0.9
 endloop
endfacet
facet normal 0 -1 0
 outer loop
  vertex -0.479 0 -0.646
  vertex -0.892 0 -0.646
  vertex -0.593 0 -0.8
 endloop
endfacet
facet normal 0 -1 0
 outer loop
  vertex -0.593 0 -0.8
  vertex -0.892 0 -0.646
  vertex -0.892 0 -0.8
 endloop
endfacet
facet normal -0 -1 -0
 outer loop
  vertex -0.593 0 -0.9
  vertex 0 0 -0.9
  vertex -0.265 0 -0.731
 endloop
endfacet
facet normal -0 -1 0
 outer loop
  vertex -0.265 0 -0.731
  vertex 0 0 -0.9
  vertex 1.1115431e-16 0 -0.731
 endloop
endfacet
facet normal 0 -1 0
 outer loop
  vertex 0.359 0 -0.471
  vertex 0.073 0 -0.234
  vertex -0.265 0 -0.471
 endloop
endfacet
facet normal 0 -1 -0
 outer loop
  vertex -0.265 0 -0.471
  vertex 0.073 0 -0.234
  vertex -0.021 0 -0.188
 endloop
endfacet
facet normal 0 -1 -0
 outer loop
  vertex -0.265 0 -0.471
  vertex -0.021 0 -0.188
  vertex -0.284 0 -0.188
 endloop
endfacet
facet normal 0 -1 0
 outer loop
  vertex 0.359 0 -0.471
  vertex 0.359 0 -0.234
  vertex 0.073 0 -0.234
 endloop
endfacet
facet normal 0 -1 0
 outer loop
  vertex 0.073 0 -0.234
  vertex 0.073 0 0.117
  vertex -0.021 0 -0.188
 endloop
endfacet
facet normal 0 -1 -0
 outer loop
  vertex -0.021 0 -0.188
  vertex 0.073 0 0.117
  vertex -0.021 0 0.101
 endloop
endfacet
facet normal 0 -1 0
 outer loop
  vertex 0.833 0 0.335
  vertex 0.58 0 0.335
  vertex 0.58 0 0.117
 endloop
endfacet
facet normal 0 -1 0
 outer loop
  vertex 0.58 0 0.117
  vertex 0.58 0 0.335
  vertex 0.424 0 0.305
 endloop
endfacet
facet normal 0 -1 0
 outer loop
  vertex 0.58 0 0.117
  vertex 0.424 0 0.305
  vertex 0.073 0 0.117
 endloop
endfacet
facet normal 0 -1 -0
 outer loop
  vertex 0.073 0 0.117
  vertex 0.424 0 0.305
  vertex -0.054 0 0.305
 endloop
endfacet
facet normal 0 -1 0
 outer loop
  vertex 0.073 0 0.117
  vertex -0.054 0 0.305
  vertex -0.021 0 0.101
 endloop
endfacet
facet normal 0 -1 0
 outer loop
  vertex -0.021 0 0.101
  vertex -0.054 0 0.305
  vertex -0.284 0 0.101
 endloop
endfacet
facet normal 0 -1 0
 outer loop
  vertex 0.833 0 0.335
  vertex 0.58 0 0.117
  vertex 0.833 0 -0.149
 endloop
endfacet
facet normal 0 -1 0
 outer loop
  vertex 0.833 0 -0.149
  vertex 0.58 0 0.117
  vertex 0.58 0 -0.081
 endloop
endfacet
facet normal 0 -1 0
 outer loop
  vertex 0.833 0 -0.149
  vertex 0.58 0 -0.081
  vertex 0.3 0 -0.149
 endloop
endfacet
facet normal 0 -1 -0
 outer loop
  vertex 0.3 0 -0.149
  vertex 0.58 0 -0.081
  vertex 0.3 0 -0.081
 endloop
endfacet
facet normal 0 -1 -0
 outer loop
  vertex 0.424 0 0.305
  vertex 0.58 0 0.335
  vertex 0.424 0 0.572
 endloop
endfacet
facet normal -0 -1 -0
 outer loop
  vertex 0.424 0 0.572
  vertex 0.58 0 0.335
  vertex 0.58 0 0.65
 endloop
endfacet
facet normal 0 -1 -0
 outer loop
  vertex 0.424 0 0.572
  vertex 0.58 0 0.65
  vertex 0.268 0 0.65
 endloop
endfacet
facet normal 0 -1 0
 outer loop
  vertex 0.268 0 0.65
  vertex 0.268 0 0.572
  vertex 0.424 0 0.572
 endloop
endfacet
facet normal 0 -1 0
 outer loop
  vertex -0.054 0 0.572
  vertex -0.388 0 0.572
  vertex -0.054 0 0.305
 endloop
endfacet
facet normal 0 -1 0
 outer loop
  vertex -0.054 0 0.305
  vertex -0.388 0 0.572
  vertex -0.284 0 0.101
 endloop
endfacet
facet normal -0 -1 0
 outer loop
  vertex -0.388 0 0.572
  vertex -0.388 0 -0.179
  vertex -0.284 0 0.101
 endloop
endfacet
facet normal 0 0 -1
 outer loop
  vertex -0.996 1 -0.101
  vertex -0.823 1 -0.101
  vertex -0.996 0 -0.101
 endloop
endfacet
facet normal -0 0 -1
 outer loop
  vertex -0.996 0 -0.101
  vertex -0.823 1 -0.101
  vertex -0.823 0 -0.101
 endloop
endfacet
facet normal 0 1 0
 outer loop
  vertex -1.496 1 -1
  vertex -1.496 1 1
  vertex -0.996 1 -0.101
 endloop
endfacet
facet normal 0 1 0
 outer loop
  vertex -0.996 1 -0.101
  vertex -1.496 1 1
  vertex -0.996 1 0.13
 endloop
endfacet
facet normal 0 1 0
 outer loop
  vertex -0.996 1 -0.101
  vertex -0.996 1 0.13
  vertex -0.823 1 -0.101
 endloop
endfacet
facet normal 0 1 0
 outer loop
  vertex -0.823 1 -0.101
  vertex -0.996 1 0.13
  vertex -0.68 1 0.13
 endloop
endfacet
facet normal 0 1 -0
 outer loop
  vertex -0.823 1 -0.101
  vertex -0.68 1 0.13
  vertex -0.68 1 -0.179
 endloop
endfacet
facet normal 0 1 0
 outer loop
  vertex -0.996 1 -0.101
  vertex -1.0011445 1 -1
  vertex -1.496 1 -1
 endloop
endfacet
facet normal 0 1 -0
 outer loop
  vertex -1.496 1 1
  vertex -0.996 1 1
  vertex -0.996 1 0.13
 endloop
endfacet
facet normal -0 1 0
 outer loop
  vertex -0.284 1 0.101
  vertex -0.284 1 -0.188
  vertex -0.388 1 -0.179
 endloop
endfacet
facet normal 0 1 -0
 outer loop
  vertex -0.388 1 -0.179
  vertex -0.284 1 -0.188
  vertex -0.479 1 -0.393
 endloop
endfacet
facet normal -0 1 0
 outer loop
  vertex -0.388 1 -0.179
  vertex -0.479 1 -0.393
  vertex -0.68 1 -0.179
 endloop
endfacet
facet normal 0 1 -0
 outer loop
  vertex -0.68 1 -0.179
  vertex -0.479 1 -0.393
  vertex -0.823 1 -0.393
 endloop
endfacet
facet normal -0 1 0
 outer loop
  vertex -0.68 1 -0.179
  vertex -0.823 1 -0.393
  vertex -0.823 1 -0.101
 endloop
endfacet
facet normal 0 1 0
 outer loop
  vertex -0.388 1 -0.179
  vertex -0.388 1 0.572
  vertex -0.284 1 0.101
 endloop
endfacet
facet normal 0 1 0
 outer loop
  vertex -0.284 1 0.101
  vertex -0.388 1 0.572
  vertex -0.054 1 0.305
 endloop
endfacet
facet normal 0 1 0
 outer loop
  vertex -0.284 1 0.101
  vertex -0.054 1 0.305
  vertex -0.021 1 0.101
 endloop
endfacet
facet normal 0 1 0
 outer loop
  vertex -0.021 1 0.101
  vertex -0.054 1 0.305
  vertex 0.073 1 0.117
 endloop
endfacet
facet normal 0 1 -0
 outer loop
  vertex -0.021 1 0.101
  vertex 0.073 1 0.117
  vertex -0.021 1 -0.188
 endloop
endfacet
facet normal 0 1 -0
 outer loop
  vertex -0.021 1 -0.188
  vertex 0.073 1 0.117
  vertex 0.073 1 -0.234
 endloop
endfacet
facet normal 0 1 -0
 outer loop
  vertex -0.021 1 -0.188
  vertex 0.073 1 -0.234
  vertex -0.265 1 -0.471
 endloop
endfacet
facet normal 0 1 0
 outer loop
  vertex -0.265 1 -0.471
  vertex 0.073 1 -0.234
  vertex 0.359 1 -0.471
 endloop
endfacet
facet normal 0 1 -0
 outer loop
  vertex -0.388 1 0.572
  vertex -0.054 1 0.572
  vertex -0.054 1 0.305
 endloop
endfacet
facet normal 0 1 -0
 outer loop
  vertex -0.054 1 0.305
  vertex 0.424 1 0.305
  vertex 0.073 1 0.117
 endloop
endfacet
facet normal 0 1 0
 outer loop
  vertex 0.073 1 0.117
  vertex 0.424 1 0.305
  vertex 0.58 1 0.117
 endloop
endfacet
facet normal 0 1 0
 outer loop
  vertex 0.58 1 0.117
  vertex 0.424 1 0.305
  vertex 0.58 1 0.335
 endloop
endfacet
facet normal -0 1 0
 outer loop
  vertex 0.58 1 0.335
  vertex 0.424 1 0.305
  vertex 0.424 1 0.572
 endloop
endfacet
facet normal 0 1 0
 outer loop
  vertex 0.58 1 0.335
  vertex 0.424 1 0.572
  vertex 0.58 1 0.65
 endloop
endfacet
facet normal -0 1 0
 outer loop
  vertex 0.58 1 0.65
  vertex 0.424 1 0.572
  vertex 0.268 1 0.65
 endloop
endfacet
facet normal -0 1 0
 outer loop
  vertex 0.424 1 0.572
  vertex 0.268 1 0.572
  vertex 0.268 1 0.65
 endloop
endfacet
facet normal 0 1 -0
 outer loop
  vertex 0.58 1 0.335
  vertex 0.833 1 0.335
  vertex 0.58 1 0.117
 endloop
endfacet
facet normal 0 1 -0
 outer loop
  vertex 0.58 1 0.117
  vertex 0.833 1 0.335
  vertex 0.833 1 -0.149
 endloop
endfacet
facet normal -0 1 -0
 outer loop
  vertex 0.58 1 0.117
  vertex 0.833 1 -0.149
  vertex 0.58 1 -0.081
 endloop
endfacet
facet normal 0 1 -0
 outer loop
  vertex 0.58 1 -0.081
  vertex 0.833 1 -0.149
  vertex 0.3 1 -0.149
 endloop
endfacet
facet normal -0 1 0
 outer loop
  vertex 0.58 1 -0.081
  vertex 0.3 1 -0.149
  vertex 0.3 1 -0.081
 endloop
endfacet
facet normal 0 1 -0
 outer loop
  vertex 0.073 1 -0.234
  vertex 0.359 1 -0.234
  vertex 0.359 1 -0.471
 endloop
endfacet
facet normal 0 1 0
 outer loop
  vertex -0.593 1 -0.9
  vertex -0.593 1 -0.8
  vertex -0.265 1 -0.731
 endloop
endfacet
facet normal -0 1 0
 outer loop
  vertex -0.265 1 -0.731
  vertex -0.593 1 -0.8
  vertex -0.479 1 -0.646
 endloop
endfacet
facet normal 0 1 0
 outer loop
  vertex -0.265 1 -0.731
  vertex -0.479 1 -0.646
  vertex -0.265 1 -0.471
 endloop
endfacet
facet normal -0 1 0
 outer loop
  vertex -0.265 1 -0.471
  vertex -0.479 1 -0.646
  vertex -0.479 1 -0.393
 endloop
endfacet
facet normal 0 1 0
 outer loop
  vertex -0.265 1 -0.471
  vertex -0.479 1 -0.393
  vertex -0.284 1 -0.188
 endloop
endfacet
facet normal -0 1 0
 outer loop
  vertex 1.1115431e-16 1 -0.731
  vertex 0 1 -0.9
  vertex -0.265 1 -0.731
 endloop
endfacet
facet normal 0 1 -0
 outer loop
  vertex -0.265 1 -0.731
  vertex 0 1 -0.9
  vertex -0.593 1 -0.9
 endloop
endfacet
facet normal 0 1 0
 outer loop
  vertex -0.892 1 -0.8
  vertex -0.892 1 -0.646
  vertex -0.593 1 -0.8
 endloop
endfacet
facet normal 0 1 0
 outer loop
  vertex -0.593 1 -0.8
  vertex -0.892 1 -0.646
  vertex -0.479 1 -0.646
 endloop
endfacet
facet normal 0 1 -0
 outer loop
  vertex -0.284 1 -0.188
  vertex -0.021 1 -0.188
  vertex -0.265 1 -0.471
 endloop
endfacet
facet normal 0 -0 1
 outer loop
  vertex -0.68 1 0.13
  vertex -0.996 1 0.13
  vertex -0.68 0 0.13
 endloop
endfacet
facet normal -0 0 1
 outer loop
  vertex -0.68 0 0.13
  vertex -0.996 1 0.13
  vertex -0.996 0 0.13
 endloop
endfacet
endsolid 
