v -0.995999991893768 0 1
v -0.995999991893768 1 1
l 1 2
v -0.995999991893768 1 1
v -0.995999991893768 1 0
l 3 4
v -0.995999991893768 1 0.129999995231628
v -0.995999991893768 0 0.129999995231628
l 5 6
v -0.995999991893768 0 0.129999995231628
v -0.995999991893768 0 1.12999999523163
l 7 8
v -0.995999991893768 1 0.129999995231628
v 0.00400000810623169 1 0.129999995231628
l 9 10
v -0.680000007152557 0 0.129999995231628
v -1.68000000715256 0 0.129999995231628
l 11 12
v -0.680000007152557 1 0.129999995231628
v -0.680000007152557 1 -0.870000004768372
l 13 14
v -0.680000007152557 1 -0.179000005125999
v -0.680000007152557 0 -0.179000005125999
l 15 16
v -0.680000007152557 0 -0.179000005125999
v -0.680000007152557 0 0.820999994874001
l 17 18
v -0.680000007152557 1 -0.179000005125999
v 0.319999992847443 1 -0.179000005125999
l 19 20
v -0.388000011444092 1 -0.179000005125999
v -0.388000011444092 0 -0.179000005125999
l 21 22
v -0.388000011444092 0 -0.179000005125999
v -1.38800001144409 0 -0.179000005125999
l 23 24
v -0.388000011444092 1 -0.179000005125999
v -0.388000011444092 1 0.820999994874001
l 25 26
v -0.388000011444092 0 0.572000026702881
v -0.388000011444092 0 -0.427999973297119
l 27 28
v -0.388000011444092 1 0.572000026702881
v 0.611999988555908 1 0.572000026702881
l 29 30
v -0.0540000014007092 0 0.572000026702881
v -1.05400000140071 0 0.572000026702881
l 31 32
v -0.0540000014007092 1 0.572000026702881
v -0.0540000014007092 1 -0.427999973297119
l 33 34
v -0.0540000014007092 1 0.305000007152557
v -0.0540000014007092 0 0.305000007152557
l 35 36
v -0.0540000014007092 0 0.305000007152557
v -0.0540000014007092 0 1.30500000715256
l 37 38
v -0.0540000014007092 1 0.305000007152557
v 0.945999998599291 1 0.305000007152557
l 39 40
v 0.42399999499321 1 0.305000007152557
v 0.42399999499321 0 0.305000007152557
l 41 42
v 0.42399999499321 0 0.305000007152557
v -0.57600000500679 0 0.305000007152557
l 43 44
v 0.42399999499321 1 0.305000007152557
v 0.42399999499321 1 1.30500000715256
l 45 46
v 0.42399999499321 1 0.572000026702881
v 0.42399999499321 0 0.572000026702881
l 47 48
v 0.42399999499321 0 0.572000026702881
v 0.42399999499321 0 -0.427999973297119
l 49 50
v 0.42399999499321 1 0.572000026702881
v -0.57600000500679 1 0.572000026702881
l 51 52
v 0.26800000667572 0 0.572000026702881
v 1.26800000667572 0 0.572000026702881
l 53 54
v 0.26800000667572 1 0.572000026702881
v 0.26800000667572 1 1.57200002670288
l 55 56
v 0.26800000667572 0 0.649999976158142
v 0.26800000667572 0 -0.350000023841858
l 57 58
v 0.26800000667572 1 0.649999976158142
v 1.26800000667572 1 0.649999976158142
l 59 60
v 0.579999983310699 0 0.649999976158142
v -0.420000016689301 0 0.649999976158142
l 61 62
v 0.579999983310699 1 0.649999976158142
v 0.579999983310699 1 -0.350000023841858
l 63 64
v 0.579999983310699 1 0.33500000834465
v 0.579999983310699 0 0.33500000834465
l 65 66
v 0.579999983310699 0 0.33500000834465
v 0.579999983310699 0 1.33500000834465
l 67 68
v 0.579999983310699 1 0.33500000834465
v 1.5799999833107 1 0.33500000834465
l 69 70
v 0.833000004291534 0 0.33500000834465
v -0.166999995708466 0 0.33500000834465
l 71 72
v 0.833000004291534 1 0.33500000834465
v 0.833000004291534 1 -0.66499999165535
l 73 74
v 0.833000004291534 0 -0.149000003933907
v 0.833000004291534 0 0.850999996066093
l 75 76
v 0.833000004291534 1 -0.149000003933907
v -0.166999995708466 1 -0.149000003933907
l 77 78
v 0.300000011920929 0 -0.149000003933907
v 1.30000001192093 0 -0.149000003933907
l 79 80
v 0.300000011920929 1 -0.149000003933907
v 0.300000011920929 1 0.850999996066093
l 81 82
v 0.300000011920929 0 -0.0810000002384186
v 0.300000011920929 0 -1.08100000023842
l 83 84
v 0.300000011920929 1 -0.0810000002384186
v 1.30000001192093 1 -0.0810000002384186
l 85 86
v 0.579999983310699 1 -0.0810000002384186
v 0.579999983310699 0 -0.0810000002384186
l 87 88
v 0.579999983310699 0 -0.0810000002384186
v -0.420000016689301 0 -0.0810000002384186
l 89 90
v 0.579999983310699 1 -0.0810000002384186
v 0.579999983310699 1 0.918999999761581
l 91 92
v 0.579999983310699 1 0.116999998688698
v 0.579999983310699 0 0.116999998688698
l 93 94
v 0.579999983310699 0 0.116999998688698
v 0.579999983310699 0 -0.883000001311302
l 95 96
v 0.579999983310699 1 0.116999998688698
v -0.420000016689301 1 0.116999998688698
l 97 98
v 0.0729999989271164 1 0.116999998688698
v 0.0729999989271164 0 0.116999998688698
l 99 100
v 0.0729999989271164 0 0.116999998688698
v 1.07299999892712 0 0.116999998688698
l 101 102
v 0.0729999989271164 1 0.116999998688698
v 0.0729999989271164 1 -0.883000001311302
l 103 104
v 0.0729999989271164 1 -0.233999997377396
v 0.0729999989271164 0 -0.233999997377396
l 105 106
v 0.0729999989271164 0 -0.233999997377396
v 0.0729999989271164 0 0.766000002622604
l 107 108
v 0.0729999989271164 1 -0.233999997377396
v 1.07299999892712 1 -0.233999997377396
l 109 110
v 0.358999997377396 0 -0.233999997377396
v -0.641000002622604 0 -0.233999997377396
l 111 112
v 0.358999997377396 1 -0.233999997377396
v 0.358999997377396 1 -1.2339999973774
l 113 114
v 0.358999997377396 0 -0.470999985933304
v 0.358999997377396 0 0.529000014066696
l 115 116
v 0.358999997377396 1 -0.470999985933304
v -0.641000002622604 1 -0.470999985933304
l 117 118
v -0.264999985694885 1 -0.470999985933304
v -0.264999985694885 0 -0.470999985933304
l 119 120
v -0.264999985694885 0 -0.470999985933304
v 0.735000014305115 0 -0.470999985933304
l 121 122
v -0.264999985694885 1 -0.470999985933304
v -0.264999985694885 1 -1.4709999859333
l 123 124
v -0.264999985694885 1 -0.731000006198883
v -0.264999985694885 0 -0.731000006198883
l 125 126
v -0.264999985694885 0 -0.731000006198883
v -0.264999985694885 0 0.268999993801117
l 127 128
v -0.264999985694885 1 -0.731000006198883
v 0.735000014305115 1 -0.731000006198883
l 129 130
v 1.11154307253389e-16 0 -0.731000006198883
v -1 0 -0.731000006198883
l 131 132
v 1.11154307253389e-16 1 -0.731000006198883
v -5.46563604058579e-16 1 -1.73100000619888
l 133 134
v 0 0 -0.899999976158142
v 6.57717911311969e-16 0 0.100000023841858
l 135 136
v 0 1 -0.899999976158142
v -1 1 -0.899999976158142
l 137 138
v -0.592999994754791 0 -0.899999976158142
v 0.407000005245209 0 -0.899999976158142
l 139 140
v -0.592999994754791 1 -0.899999976158142
v -0.592999994754791 1 0.100000023841858
l 141 142
v -0.592999994754791 1 -0.800000011920929
v -0.592999994754791 0 -0.800000011920929
l 143 144
v -0.592999994754791 0 -0.800000011920929
v -0.592999994754791 0 -1.80000001192093
l 145 146
v -0.592999994754791 1 -0.800000011920929
v -1.59299999475479 1 -0.800000011920929
l 147 148
v -0.892000019550323 0 -0.800000011920929
v 0.107999980449677 0 -0.800000011920929
l 149 150
v -0.892000019550323 1 -0.800000011920929
v -0.892000019550323 1 0.199999988079071
l 151 152
v -0.892000019550323 0 -0.646000027656555
v -0.892000019550323 0 -1.64600002765656
l 153 154
v -0.892000019550323 1 -0.646000027656555
v 0.107999980449677 1 -0.646000027656555
l 155 156
v -0.479000002145767 1 -0.646000027656555
v -0.479000002145767 0 -0.646000027656555
l 157 158
v -0.479000002145767 0 -0.646000027656555
v -1.47900000214577 0 -0.646000027656555
l 159 160
v -0.479000002145767 1 -0.646000027656555
v -0.479000002145767 1 0.353999972343445
l 161 162
v -0.479000002145767 1 -0.39300000667572
v -0.479000002145767 0 -0.39300000667572
l 163 164
v -0.479000002145767 0 -0.39300000667572
v -0.479000002145767 0 -1.39300000667572
l 165 166
v -0.479000002145767 1 -0.39300000667572
v -1.47900000214577 1 -0.39300000667572
l 167 168
v -0.823000013828278 0 -0.39300000667572
v 0.176999986171722 0 -0.39300000667572
l 169 170
v -0.823000013828278 1 -0.39300000667572
v -0.823000013828278 1 0.60699999332428
l 171 172
v -0.823000013828278 1 -0.101000003516674
v -0.823000013828278 0 -0.101000003516674
l 173 174
v -0.823000013828278 0 -0.101000003516674
v -0.823000013828278 0 -1.10100000351667
l 175 176
v -0.823000013828278 1 -0.101000003516674
v -1.82300001382828 1 -0.101000003516674
l 177 178
v -0.995999991893768 1 -0.101000003516674
v -0.995999991893768 0 -0.101000003516674
l 179 180
v -0.995999991893768 0 -0.101000003516674
v 0.00400000810623169 0 -0.101000003516674
l 181 182
v -0.995999991893768 1 -0.101000003516674
v -1.00172237038624 1 -1.10098363057483
l 183 184
v -1 0 -0.800000011920929
v -0.994277621507526 0 0.199983615137229
l 185 186
v -1 1 -0.800000011920929
v -1 1 -1.80000001192093
l 187 188
v -1 1 -1
v -1 0 -1
l 189 190
v -1 0 -1
v -1 0 0
l 191 192
v -1 1 -1
v 0 1 -1
l 193 194
v 1 1 -1
v 1 0 -1
l 195 196
v 1 0 -1
v 0 0 -1
l 197 198
v 1 1 -1
v 1 1 0
l 199 200
v 1 1 1
v 1 0 1
l 201 202
v 1 0 1
v 1 0 0
l 203 204
v 1 1 1
v 0 1 1
l 205 206
v -0.995999991893768 0 1
v 0.00400000810623169 0 1
l 207 208
v -0.680000007152557 1 0.129999995231628
v -0.680000007152557 0 0.129999995231628
l 209 210
v -0.388000011444092 1 0.572000026702881
v -0.388000011444092 0 0.572000026702881
l 211 212
v -0.0540000014007092 1 0.572000026702881
v -0.0540000014007092 0 0.572000026702881
l 213 214
v 0.26800000667572 1 0.572000026702881
v 0.26800000667572 0 0.572000026702881
l 215 216
v 0.26800000667572 1 0.649999976158142
v 0.26800000667572 0 0.649999976158142
l 217 218
v 0.579999983310699 1 0.649999976158142
v 0.579999983310699 0 0.649999976158142
l 219 220
v 0.833000004291534 1 0.33500000834465
v 0.833000004291534 0 0.33500000834465
l 221 222
v 0.833000004291534 1 -0.149000003933907
v 0.833000004291534 0 -0.149000003933907
l 223 224
v 0.300000011920929 1 -0.149000003933907
v 0.300000011920929 0 -0.149000003933907
l 225 226
v 0.300000011920929 1 -0.0810000002384186
v 0.300000011920929 0 -0.0810000002384186
l 227 228
v 0.358999997377396 1 -0.233999997377396
v 0.358999997377396 0 -0.233999997377396
l 229 230
v 0.358999997377396 1 -0.470999985933304
v 0.358999997377396 0 -0.470999985933304
l 231 232
v 1.11154307253389e-16 1 -0.731000006198883
v 1.11154307253389e-16 0 -0.731000006198883
l 233 234
v 0 1 -0.899999976158142
v 0 0 -0.899999976158142
l 235 236
v -0.592999994754791 1 -0.899999976158142
v -0.592999994754791 0 -0.899999976158142
l 237 238
v -0.892000019550323 1 -0.800000011920929
v -0.892000019550323 0 -0.800000011920929
l 239 240
v -0.892000019550323 1 -0.646000027656555
v -0.892000019550323 0 -0.646000027656555
l 241 242
v -0.823000013828278 1 -0.39300000667572
v -0.823000013828278 0 -0.39300000667572
l 243 244
