# Wavefront OBJ file written 2026-04-08T12:52:30
o externe_scale_edgeMesh

# points : 82
# lines  : 122

# <points count="82">
v -0.995999991893768 1 1
v -0.995999991893768 1 0.129999995231628
v -0.995999991893768 0 1
v -0.995999991893768 0 0.129999995231628
v -0.680000007152557 1 -0.179000005125999
v -0.680000007152557 0 -0.179000005125999
v -0.388000011444092 1 -0.179000005125999
v -0.388000011444092 0 -0.179000005125999
v -0.0540000014007092 1 0.305000007152557
v -0.0540000014007092 0 0.305000007152557
v 0.42399999499321 1 0.305000007152557
v 0.42399999499321 0 0.305000007152557
v 0.42399999499321 1 0.572000026702881
v 0.42399999499321 0 0.572000026702881
v 0.579999983310699 1 0.33500000834465
v 0.579999983310699 0 0.33500000834465
v 0.579999983310699 1 -0.0810000002384186
v 0.579999983310699 0 -0.0810000002384186
v 0.579999983310699 1 0.116999998688698
v 0.579999983310699 0 0.116999998688698
v 0.0729999989271164 1 0.116999998688698
v 0.0729999989271164 0 0.116999998688698
v 0.0729999989271164 1 -0.233999997377396
v 0.0729999989271164 0 -0.233999997377396
v -0.264999985694885 1 -0.470999985933304
v -0.264999985694885 0 -0.470999985933304
v -0.264999985694885 1 -0.731000006198883
v -0.264999985694885 0 -0.731000006198883
v -0.592999994754791 1 -0.800000011920929
v -0.592999994754791 0 -0.800000011920929
v -0.479000002145767 1 -0.646000027656555
v -0.479000002145767 0 -0.646000027656555
v -0.479000002145767 1 -0.39300000667572
v -0.479000002145767 0 -0.39300000667572
v -0.823000013828278 1 -0.101000003516674
v -0.823000013828278 0 -0.101000003516674
v -0.995999991893768 1 -0.101000003516674
v -0.995999991893768 0 -0.101000003516674
v -1 1 -1
v -1 0 -1
v 1 1 -1
v 1 0 -1
v 1 1 1
v 1 0 1
v -0.680000007152557 1 0.129999995231628
v -0.680000007152557 0 0.129999995231628
v -0.388000011444092 1 0.572000026702881
v -0.388000011444092 0 0.572000026702881
v -0.0540000014007092 1 0.572000026702881
v -0.0540000014007092 0 0.572000026702881
v 0.26800000667572 1 0.572000026702881
v 0.26800000667572 0 0.572000026702881
v 0.26800000667572 1 0.649999976158142
v 0.26800000667572 0 0.649999976158142
v 0.579999983310699 1 0.649999976158142
v 0.579999983310699 0 0.649999976158142
v 0.833000004291534 1 0.33500000834465
v 0.833000004291534 0 0.33500000834465
v 0.833000004291534 1 -0.149000003933907
v 0.833000004291534 0 -0.149000003933907
v 0.300000011920929 1 -0.149000003933907
v 0.300000011920929 0 -0.149000003933907
v 0.300000011920929 1 -0.0810000002384186
v 0.300000011920929 0 -0.0810000002384186
v 0.358999997377396 1 -0.233999997377396
v 0.358999997377396 0 -0.233999997377396
v 0.358999997377396 1 -0.470999985933304
v 0.358999997377396 0 -0.470999985933304
v 1.11154307253389e-16 1 -0.731000006198883
v 1.11154307253389e-16 0 -0.731000006198883
v 0 1 -0.899999976158142
v 0 0 -0.899999976158142
v -0.592999994754791 1 -0.899999976158142
v -0.592999994754791 0 -0.899999976158142
v -0.892000019550323 1 -0.800000011920929
v -0.892000019550323 0 -0.800000011920929
v -0.892000019550323 1 -0.646000027656555
v -0.892000019550323 0 -0.646000027656555
v -0.823000013828278 1 -0.39300000667572
v -0.823000013828278 0 -0.39300000667572
v -1 1 -0.800000011920929
v -1 0 -0.800000011920929
# </points>

# <edges count="122">
l 3 1
l 1 2
l 2 4
l 4 3
l 2 45
l 46 4
l 45 5
l 5 6
l 6 46
l 5 7
l 7 8
l 8 6
l 7 47
l 48 8
l 47 49
l 50 48
l 49 9
l 9 10
l 10 50
l 9 11
l 11 12
l 12 10
l 11 13
l 13 14
l 14 12
l 13 51
l 52 14
l 51 53
l 54 52
l 53 55
l 56 54
l 55 15
l 15 16
l 16 56
l 15 57
l 58 16
l 57 59
l 60 58
l 59 61
l 62 60
l 61 63
l 64 62
l 63 17
l 17 18
l 18 64
l 17 19
l 19 20
l 20 18
l 19 21
l 21 22
l 22 20
l 21 23
l 23 24
l 24 22
l 23 65
l 66 24
l 65 67
l 68 66
l 67 25
l 25 26
l 26 68
l 25 27
l 27 28
l 28 26
l 27 69
l 70 28
l 69 71
l 72 70
l 71 73
l 74 72
l 73 29
l 29 30
l 30 74
l 29 75
l 76 30
l 75 77
l 78 76
l 77 31
l 31 32
l 32 78
l 31 33
l 33 34
l 34 32
l 33 79
l 80 34
l 79 35
l 35 36
l 36 80
l 35 37
l 37 38
l 38 36
l 37 81
l 82 38
l 81 39
l 39 40
l 40 82
l 39 41
l 41 42
l 42 40
l 41 43
l 43 44
l 44 42
l 43 1
l 3 44
l 45 46
l 47 48
l 49 50
l 51 52
l 53 54
l 55 56
l 57 58
l 59 60
l 61 62
l 63 64
l 65 66
l 67 68
l 69 70
l 71 72
l 73 74
l 75 76
l 77 78
l 79 80
# </edges>
