v -0.995999991893768 1 1
v -0.995999991893768 1 0.129999995231628
v -0.995999991893768 0 1
v -0.995999991893768 0 0.129999995231628
v -0.680000007152557 1 -0.179000005125999
v -0.680000007152557 0 -0.179000005125999
v -0.388000011444092 1 -0.179000005125999
v -0.388000011444092 0 -0.179000005125999
v -0.0540000014007092 1 0.305000007152557
v -0.0540000014007092 0 0.305000007152557
v 0.42399999499321 1 0.305000007152557
v 0.42399999499321 0 0.305000007152557
v 0.42399999499321 1 0.572000026702881
v 0.42399999499321 0 0.572000026702881
v 0.579999983310699 1 0.33500000834465
v 0.579999983310699 0 0.33500000834465
v 0.579999983310699 1 -0.0810000002384186
v 0.579999983310699 0 -0.0810000002384186
v 0.579999983310699 1 0.116999998688698
v 0.579999983310699 0 0.116999998688698
v 0.0729999989271164 1 0.116999998688698
v 0.0729999989271164 0 0.116999998688698
v 0.0729999989271164 1 -0.233999997377396
v 0.0729999989271164 0 -0.233999997377396
v -0.264999985694885 1 -0.470999985933304
v -0.264999985694885 0 -0.470999985933304
v -0.264999985694885 1 -0.731000006198883
v -0.264999985694885 0 -0.731000006198883
v -0.592999994754791 1 -0.800000011920929
v -0.592999994754791 0 -0.800000011920929
v -0.479000002145767 1 -0.646000027656555
v -0.479000002145767 0 -0.646000027656555
v -0.479000002145767 1 -0.39300000667572
v -0.479000002145767 0 -0.39300000667572
v -0.823000013828278 1 -0.101000003516674
v -0.823000013828278 0 -0.101000003516674
v -0.995999991893768 1 -0.101000003516674
v -0.995999991893768 0 -0.101000003516674
v -1 1 -1
v -1 0 -1
v 1 1 -1
v 1 0 -1
v 1 1 1
v 1 0 1
