v -0.680000007152557 1 0.129999995231628
v -0.680000007152557 0 0.129999995231628
l 1 2
v -0.388000011444092 1 0.572000026702881
v -0.388000011444092 0 0.572000026702881
l 3 4
v -0.0540000014007092 1 0.572000026702881
v -0.0540000014007092 0 0.572000026702881
l 5 6
v 0.26800000667572 1 0.572000026702881
v 0.26800000667572 0 0.572000026702881
l 7 8
v 0.26800000667572 1 0.649999976158142
v 0.26800000667572 0 0.649999976158142
l 9 10
v 0.579999983310699 1 0.649999976158142
v 0.579999983310699 0 0.649999976158142
l 11 12
v 0.833000004291534 1 0.33500000834465
v 0.833000004291534 0 0.33500000834465
l 13 14
v 0.833000004291534 1 -0.149000003933907
v 0.833000004291534 0 -0.149000003933907
l 15 16
v 0.300000011920929 1 -0.149000003933907
v 0.300000011920929 0 -0.149000003933907
l 17 18
v 0.300000011920929 1 -0.0810000002384186
v 0.300000011920929 0 -0.0810000002384186
l 19 20
v 0.358999997377396 1 -0.233999997377396
v 0.358999997377396 0 -0.233999997377396
l 21 22
v 0.358999997377396 1 -0.470999985933304
v 0.358999997377396 0 -0.470999985933304
l 23 24
v 1.11154307253389e-16 1 -0.731000006198883
v 1.11154307253389e-16 0 -0.731000006198883
l 25 26
v 0 1 -0.899999976158142
v 0 0 -0.899999976158142
l 27 28
v -0.592999994754791 1 -0.899999976158142
v -0.592999994754791 0 -0.899999976158142
l 29 30
v -0.892000019550323 1 -0.800000011920929
v -0.892000019550323 0 -0.800000011920929
l 31 32
v -0.892000019550323 1 -0.646000027656555
v -0.892000019550323 0 -0.646000027656555
l 33 34
v -0.823000013828278 1 -0.39300000667572
v -0.823000013828278 0 -0.39300000667572
l 35 36
