v -0.680000007152557 1 0.129999995231628
v -0.680000007152557 0 0.129999995231628
v -0.388000011444092 1 0.572000026702881
v -0.388000011444092 0 0.572000026702881
v -0.0540000014007092 1 0.572000026702881
v -0.0540000014007092 0 0.572000026702881
v 0.26800000667572 1 0.572000026702881
v 0.26800000667572 0 0.572000026702881
v 0.26800000667572 1 0.649999976158142
v 0.26800000667572 0 0.649999976158142
v 0.579999983310699 1 0.649999976158142
v 0.579999983310699 0 0.649999976158142
v 0.833000004291534 1 0.33500000834465
v 0.833000004291534 0 0.33500000834465
v 0.833000004291534 1 -0.149000003933907
v 0.833000004291534 0 -0.149000003933907
v 0.300000011920929 1 -0.149000003933907
v 0.300000011920929 0 -0.149000003933907
v 0.300000011920929 1 -0.0810000002384186
v 0.300000011920929 0 -0.0810000002384186
v 0.358999997377396 1 -0.233999997377396
v 0.358999997377396 0 -0.233999997377396
v 0.358999997377396 1 -0.470999985933304
v 0.358999997377396 0 -0.470999985933304
v 1.11154307253389e-16 1 -0.731000006198883
v 1.11154307253389e-16 0 -0.731000006198883
v 0 1 -0.899999976158142
v 0 0 -0.899999976158142
v -0.592999994754791 1 -0.899999976158142
v -0.592999994754791 0 -0.899999976158142
v -0.892000019550323 1 -0.800000011920929
v -0.892000019550323 0 -0.800000011920929
v -0.892000019550323 1 -0.646000027656555
v -0.892000019550323 0 -0.646000027656555
v -0.823000013828278 1 -0.39300000667572
v -0.823000013828278 0 -0.39300000667572
