v -0.995999991893768 1 0.129999995231628
v -0.680000007152557 1 0.129999995231628
l 1 2
v -0.680000007152557 1 0.129999995231628
v -0.680000007152557 1 -0.179000005125999
l 3 4
v -0.680000007152557 1 0.129999995231628
v -0.680000007152557 0 0.129999995231628
l 5 6
v -0.680000007152557 0 0.129999995231628
v -0.995999991893768 0 0.129999995231628
l 7 8
v -0.680000007152557 0 -0.179000005125999
v -0.680000007152557 0 0.129999995231628
l 9 10
v -0.680000007152557 1 0.129999995231628
v -0.680000007152557 0 0.129999995231628
l 11 12
v -0.388000011444092 1 -0.179000005125999
v -0.388000011444092 1 0.572000026702881
l 13 14
v -0.388000011444092 1 0.572000026702881
v -0.0540000014007092 1 0.572000026702881
l 15 16
v -0.388000011444092 1 0.572000026702881
v -0.388000011444092 0 0.572000026702881
l 17 18
v -0.388000011444092 0 0.572000026702881
v -0.388000011444092 0 -0.179000005125999
l 19 20
v -0.0540000014007092 0 0.572000026702881
v -0.388000011444092 0 0.572000026702881
l 21 22
v -0.388000011444092 1 0.572000026702881
v -0.388000011444092 0 0.572000026702881
l 23 24
v -0.388000011444092 1 0.572000026702881
v -0.0540000014007092 1 0.572000026702881
l 25 26
v -0.0540000014007092 1 0.572000026702881
v -0.0540000014007092 1 0.305000007152557
l 27 28
v -0.0540000014007092 1 0.572000026702881
v -0.0540000014007092 0 0.572000026702881
l 29 30
v -0.0540000014007092 0 0.572000026702881
v -0.388000011444092 0 0.572000026702881
l 31 32
v -0.0540000014007092 0 0.305000007152557
v -0.0540000014007092 0 0.572000026702881
l 33 34
v -0.0540000014007092 1 0.572000026702881
v -0.0540000014007092 0 0.572000026702881
l 35 36
v 0.42399999499321 1 0.572000026702881
v 0.26800000667572 1 0.572000026702881
l 37 38
v 0.26800000667572 1 0.572000026702881
v 0.26800000667572 1 0.649999976158142
l 39 40
v 0.26800000667572 1 0.572000026702881
v 0.26800000667572 0 0.572000026702881
l 41 42
v 0.26800000667572 0 0.572000026702881
v 0.42399999499321 0 0.572000026702881
l 43 44
v 0.26800000667572 0 0.649999976158142
v 0.26800000667572 0 0.572000026702881
l 45 46
v 0.26800000667572 1 0.572000026702881
v 0.26800000667572 0 0.572000026702881
l 47 48
v 0.26800000667572 1 0.572000026702881
v 0.26800000667572 1 0.649999976158142
l 49 50
v 0.26800000667572 1 0.649999976158142
v 0.579999983310699 1 0.649999976158142
l 51 52
v 0.26800000667572 1 0.649999976158142
v 0.26800000667572 0 0.649999976158142
l 53 54
v 0.26800000667572 0 0.649999976158142
v 0.26800000667572 0 0.572000026702881
l 55 56
v 0.579999983310699 0 0.649999976158142
v 0.26800000667572 0 0.649999976158142
l 57 58
v 0.26800000667572 1 0.649999976158142
v 0.26800000667572 0 0.649999976158142
l 59 60
v 0.26800000667572 1 0.649999976158142
v 0.579999983310699 1 0.649999976158142
l 61 62
v 0.579999983310699 1 0.649999976158142
v 0.579999983310699 1 0.33500000834465
l 63 64
v 0.579999983310699 1 0.649999976158142
v 0.579999983310699 0 0.649999976158142
l 65 66
v 0.579999983310699 0 0.649999976158142
v 0.26800000667572 0 0.649999976158142
l 67 68
v 0.579999983310699 0 0.33500000834465
v 0.579999983310699 0 0.649999976158142
l 69 70
v 0.579999983310699 1 0.649999976158142
v 0.579999983310699 0 0.649999976158142
l 71 72
v 0.579999983310699 1 0.33500000834465
v 0.833000004291534 1 0.33500000834465
l 73 74
v 0.833000004291534 1 0.33500000834465
v 0.833000004291534 1 -0.149000003933907
l 75 76
v 0.833000004291534 1 0.33500000834465
v 0.833000004291534 0 0.33500000834465
l 77 78
v 0.833000004291534 0 0.33500000834465
v 0.579999983310699 0 0.33500000834465
l 79 80
v 0.833000004291534 0 -0.149000003933907
v 0.833000004291534 0 0.33500000834465
l 81 82
v 0.833000004291534 1 0.33500000834465
v 0.833000004291534 0 0.33500000834465
l 83 84
v 0.833000004291534 1 0.33500000834465
v 0.833000004291534 1 -0.149000003933907
l 85 86
v 0.833000004291534 1 -0.149000003933907
v 0.300000011920929 1 -0.149000003933907
l 87 88
v 0.833000004291534 1 -0.149000003933907
v 0.833000004291534 0 -0.149000003933907
l 89 90
v 0.833000004291534 0 -0.149000003933907
v 0.833000004291534 0 0.33500000834465
l 91 92
v 0.300000011920929 0 -0.149000003933907
v 0.833000004291534 0 -0.149000003933907
l 93 94
v 0.833000004291534 1 -0.149000003933907
v 0.833000004291534 0 -0.149000003933907
l 95 96
v 0.833000004291534 1 -0.149000003933907
v 0.300000011920929 1 -0.149000003933907
l 97 98
v 0.300000011920929 1 -0.149000003933907
v 0.300000011920929 1 -0.0810000002384186
l 99 100
v 0.300000011920929 1 -0.149000003933907
v 0.300000011920929 0 -0.149000003933907
l 101 102
v 0.300000011920929 0 -0.149000003933907
v 0.833000004291534 0 -0.149000003933907
l 103 104
v 0.300000011920929 0 -0.0810000002384186
v 0.300000011920929 0 -0.149000003933907
l 105 106
v 0.300000011920929 1 -0.149000003933907
v 0.300000011920929 0 -0.149000003933907
l 107 108
v 0.300000011920929 1 -0.149000003933907
v 0.300000011920929 1 -0.0810000002384186
l 109 110
v 0.300000011920929 1 -0.0810000002384186
v 0.579999983310699 1 -0.0810000002384186
l 111 112
v 0.300000011920929 1 -0.0810000002384186
v 0.300000011920929 0 -0.0810000002384186
l 113 114
v 0.300000011920929 0 -0.0810000002384186
v 0.300000011920929 0 -0.149000003933907
l 115 116
v 0.579999983310699 0 -0.0810000002384186
v 0.300000011920929 0 -0.0810000002384186
l 117 118
v 0.300000011920929 1 -0.0810000002384186
v 0.300000011920929 0 -0.0810000002384186
l 119 120
v 0.0729999989271164 1 -0.233999997377396
v 0.358999997377396 1 -0.233999997377396
l 121 122
v 0.358999997377396 1 -0.233999997377396
v 0.358999997377396 1 -0.470999985933304
l 123 124
v 0.358999997377396 1 -0.233999997377396
v 0.358999997377396 0 -0.233999997377396
l 125 126
v 0.358999997377396 0 -0.233999997377396
v 0.0729999989271164 0 -0.233999997377396
l 127 128
v 0.358999997377396 0 -0.470999985933304
v 0.358999997377396 0 -0.233999997377396
l 129 130
v 0.358999997377396 1 -0.233999997377396
v 0.358999997377396 0 -0.233999997377396
l 131 132
v 0.358999997377396 1 -0.233999997377396
v 0.358999997377396 1 -0.470999985933304
l 133 134
v 0.358999997377396 1 -0.470999985933304
v -0.264999985694885 1 -0.470999985933304
l 135 136
v 0.358999997377396 1 -0.470999985933304
v 0.358999997377396 0 -0.470999985933304
l 137 138
v 0.358999997377396 0 -0.470999985933304
v 0.358999997377396 0 -0.233999997377396
l 139 140
v -0.264999985694885 0 -0.470999985933304
v 0.358999997377396 0 -0.470999985933304
l 141 142
v 0.358999997377396 1 -0.470999985933304
v 0.358999997377396 0 -0.470999985933304
l 143 144
v -0.264999985694885 1 -0.731000006198883
v 1.11154307253389e-16 1 -0.731000006198883
l 145 146
v 1.11154307253389e-16 1 -0.731000006198883
v 0 1 -0.899999976158142
l 147 148
v 1.11154307253389e-16 1 -0.731000006198883
v 1.11154307253389e-16 0 -0.731000006198883
l 149 150
v 1.11154307253389e-16 0 -0.731000006198883
v -0.264999985694885 0 -0.731000006198883
l 151 152
v 0 0 -0.899999976158142
v 1.11154307253389e-16 0 -0.731000006198883
l 153 154
v 1.11154307253389e-16 1 -0.731000006198883
v 1.11154307253389e-16 0 -0.731000006198883
l 155 156
v 1.11154307253389e-16 1 -0.731000006198883
v 0 1 -0.899999976158142
l 157 158
v 0 1 -0.899999976158142
v -0.592999994754791 1 -0.899999976158142
l 159 160
v 0 1 -0.899999976158142
v 0 0 -0.899999976158142
l 161 162
v 0 0 -0.899999976158142
v 1.11154307253389e-16 0 -0.731000006198883
l 163 164
v -0.592999994754791 0 -0.899999976158142
v 0 0 -0.899999976158142
l 165 166
v 0 1 -0.899999976158142
v 0 0 -0.899999976158142
l 167 168
v 0 1 -0.899999976158142
v -0.592999994754791 1 -0.899999976158142
l 169 170
v -0.592999994754791 1 -0.899999976158142
v -0.592999994754791 1 -0.800000011920929
l 171 172
v -0.592999994754791 1 -0.899999976158142
v -0.592999994754791 0 -0.899999976158142
l 173 174
v -0.592999994754791 0 -0.899999976158142
v 0 0 -0.899999976158142
l 175 176
v -0.592999994754791 0 -0.800000011920929
v -0.592999994754791 0 -0.899999976158142
l 177 178
v -0.592999994754791 1 -0.899999976158142
v -0.592999994754791 0 -0.899999976158142
l 179 180
v -0.592999994754791 1 -0.800000011920929
v -0.892000019550323 1 -0.800000011920929
l 181 182
v -0.892000019550323 1 -0.800000011920929
v -0.892000019550323 1 -0.646000027656555
l 183 184
v -0.892000019550323 1 -0.800000011920929
v -0.892000019550323 0 -0.800000011920929
l 185 186
v -0.892000019550323 0 -0.800000011920929
v -0.592999994754791 0 -0.800000011920929
l 187 188
v -0.892000019550323 0 -0.646000027656555
v -0.892000019550323 0 -0.800000011920929
l 189 190
v -0.892000019550323 1 -0.800000011920929
v -0.892000019550323 0 -0.800000011920929
l 191 192
v -0.892000019550323 1 -0.800000011920929
v -0.892000019550323 1 -0.646000027656555
l 193 194
v -0.892000019550323 1 -0.646000027656555
v -0.479000002145767 1 -0.646000027656555
l 195 196
v -0.892000019550323 1 -0.646000027656555
v -0.892000019550323 0 -0.646000027656555
l 197 198
v -0.892000019550323 0 -0.646000027656555
v -0.892000019550323 0 -0.800000011920929
l 199 200
v -0.479000002145767 0 -0.646000027656555
v -0.892000019550323 0 -0.646000027656555
l 201 202
v -0.892000019550323 1 -0.646000027656555
v -0.892000019550323 0 -0.646000027656555
l 203 204
v -0.479000002145767 1 -0.39300000667572
v -0.823000013828278 1 -0.39300000667572
l 205 206
v -0.823000013828278 1 -0.39300000667572
v -0.823000013828278 1 -0.101000003516674
l 207 208
v -0.823000013828278 1 -0.39300000667572
v -0.823000013828278 0 -0.39300000667572
l 209 210
v -0.823000013828278 0 -0.39300000667572
v -0.479000002145767 0 -0.39300000667572
l 211 212
v -0.823000013828278 0 -0.101000003516674
v -0.823000013828278 0 -0.39300000667572
l 213 214
v -0.823000013828278 1 -0.39300000667572
v -0.823000013828278 0 -0.39300000667572
l 215 216
